<svg height="28" viewBox="0 0 12 28" width="12" xmlns="http://www.w3.org/2000/svg"><path d="M6.3 0c0 7-6 7.01-6 14s5.99 7 6 13.99 5 .01 5 .01V0z" fill="#ff8a00"/><path d="M6.3 0c0 7-6 7-6 14s6 7 6 14" fill="none" stroke="#000" stroke-linecap="square" stroke-miterlimit="10" stroke-width=".5"/><path d="M11.22 0v.04c-.02 6.96-6 6.98-6 13.96 0 6.99 5.98 7 6 13.96V28h5V0z" fill="#aa9cff"/><path d="M11.17 0c0 7-6 7-6 14s6 7 6 14" fill="none" stroke="#000" stroke-linecap="square" stroke-miterlimit="10" stroke-width=".5"/></svg>