<svg height="28" viewBox="0 0 22 28" width="22" xmlns="http://www.w3.org/2000/svg"><path d="M21.94 0H0v28h21.99v-.28c0-6.35-3.63-11.85-8.94-14.53C17.98 10.7 21.46 5.77 21.93 0z" fill="#0094ff"/><path d="M0 0v28h2.7l-.11-.08c4.22-2.94 6.99-7.83 6.99-13.36C9.58 8.21 5.95 2.71.65.03.67.03.69.01.7 0H0z" fill="#ff84ca"/><path d="M.15 0L0 .08v.05l.83.42C6.17 3.25 9.5 8.64 9.5 14.63c0 5.15-2.53 9.99-6.78 12.95l-.59.41h.88C7.23 25.05 10 20.16 10 14.63 10 8.28 6.37 2.78 1.06.1c.06-.03.12-.07.19-.1zm21.8 0h-.5a15.68 15.68 0 01-8.61 12.79l-.88.45.88.45c5.34 2.7 8.67 8.09 8.67 14.08V28h.5v-.23c0-6.35-3.63-11.85-8.94-14.53C18.01 10.74 21.5 5.8 21.96 0z"/></svg>