<svg height="25" viewBox="0 0 34 25" width="34" xmlns="http://www.w3.org/2000/svg"><clipPath id="a"><path d="M0 0h34v25H0z"/></clipPath><mask id="b" height="32.07" maskUnits="userSpaceOnUse" width="2071.96" x="-39.46" y="-7.07"><path d="M1000.36-6.57h1031v18h-.68l.84.5-21.04 12.49-17.18-10.2-17.19 10.2-17.19-10.2-17.19 10.2-17.19-10.2-17.19 10.2-17.19-10.2-17.18 10.2-17.19-10.2-17.19 10.2-17.19-10.2-17.19 10.2-17.18-10.2-17.19 10.2-17.19-10.2-17.19 10.2-17.19-10.2-17.19 10.2-17.18-10.2-17.19 10.2-17.19-10.2-17.19 10.2-17.19-10.2-17.19 10.2-17.18-10.2-17.19 10.2-17.19-10.2-17.19 10.2-17.19-10.2-17.19 10.2-17.18-10.2-17.19 10.2-17.19-10.2-17.19 10.2-17.19-10.2-17.19 10.2-17.18-10.2-17.19 10.2-17.19-10.2-17.19 10.2-17.19-10.2-17.19 10.2-17.18-10.2-17.19 10.2-17.19-10.2-17.19 10.2-17.19-10.2-17.19 10.2-17.18-10.2-17.19 10.2-17.19-10.2-17.19 10.2-17.19-10.2-17.19 10.2-17.18-10.2-17.19 10.2-17.19-10.2-17.19 10.2-17.04-10.11-17.04 10.11-17.19-10.2-17.18 10.2-17.19-10.2-17.19 10.2-17.19-10.2-17.19 10.2-17.19-10.2-17.19 10.2-17.19-10.2-17.19 10.2-17.19-10.2-17.19 10.2-17.19-10.2-17.19 10.2-17.19-10.2-17.19 10.2-17.19-10.2-17.19 10.2-17.19-10.2-17.19 10.2-17.19-10.2-17.19 10.2-17.19-10.2-17.19 10.2-17.19-10.2-17.19 10.2-17.19-10.2-17.19 10.2-17.19-10.2-17.19 10.2-17.19-10.2-17.19 10.2-17.19-10.2-17.19 10.2-17.19-10.2-17.19 10.2-17.19-10.2-17.19 10.2-17.19-10.2-17.19 10.2-17.19-10.2-17.19 10.2-17.19-10.2-17.19 10.2-17.19-10.2-17.19 10.2-17.19-10.2-17.19 10.2-17.19-10.2-17.19 10.2-17.19-10.2-17.19 10.2-17.19-10.2-17.19 10.2-17.19-10.2-17.19 10.2-17.1-10.2-17.19 10.2-21.04-12.49.84-.5h-1v-18z" fill="#fff" fill-rule="evenodd"/></mask><mask id="c" height="32.07" maskUnits="userSpaceOnUse" width="2071.96" x="-39.46" y="-16.07"><path d="M1000.36-15.57h1031v18h-.68l.84.5-21.04 12.49-17.18-10.2-17.19 10.2-17.19-10.2-17.19 10.2-17.19-10.2-17.19 10.2-17.19-10.2-17.18 10.2-17.19-10.2-17.19 10.2-17.19-10.2-17.19 10.2-17.18-10.2-17.19 10.2-17.19-10.2-17.19 10.2-17.19-10.2-17.19 10.2-17.18-10.2-17.19 10.2-17.19-10.2-17.19 10.2-17.19-10.2-17.19 10.2-17.18-10.2-17.19 10.2-17.19-10.2-17.19 10.2-17.19-10.2-17.19 10.2-17.18-10.2-17.19 10.2-17.19-10.2-17.19 10.2-17.19-10.2-17.19 10.2-17.18-10.2-17.19 10.2-17.19-10.2-17.19 10.2-17.19-10.2-17.19 10.2-17.18-10.2-17.19 10.2-17.19-10.2-17.19 10.2-17.19-10.2-17.19 10.2-17.18-10.2-17.19 10.2-17.19-10.2-17.19 10.2-17.19-10.2-17.19 10.2-17.18-10.2-17.19 10.2-17.19-10.2-17.19 10.2-17.04-10.11-17.04 10.11-17.19-10.2-17.18 10.2-17.19-10.2-17.19 10.2-17.19-10.2-17.19 10.2-17.19-10.2-17.19 10.2-17.19-10.2-17.19 10.2-17.19-10.2-17.19 10.2-17.19-10.2-17.19 10.2-17.19-10.2-17.19 10.2-17.19-10.2-17.19 10.2-17.19-10.2-17.19 10.2-17.19-10.2-17.19 10.2-17.19-10.2-17.19 10.2-17.19-10.2-17.19 10.2-17.19-10.2-17.19 10.2-17.19-10.2-17.19 10.2-17.19-10.2-17.19 10.2-17.19-10.2-17.19 10.2-17.19-10.2-17.19 10.2-17.19-10.2-17.19 10.2-17.19-10.2-17.19 10.2-17.19-10.2-17.19 10.2-17.19-10.2-17.19 10.2-17.19-10.2-17.19 10.2-17.19-10.2-17.19 10.2-17.19-10.2-17.19 10.2-17.19-10.2-17.19 10.2-17.19-10.2-17.19 10.2-17.19-10.2-17.19 10.2-17.1-10.2-17.19 10.2-21.04-12.49.84-.5h-1v-18z" fill="#fff" fill-rule="evenodd"/></mask><g clip-path="url(#a)"><path d="M1000.36-6.57h1031v18h-.68l.84.5-21.04 12.49-17.18-10.2-17.19 10.2-17.19-10.2-17.19 10.2-17.19-10.2-17.19 10.2-17.19-10.2-17.18 10.2-17.19-10.2-17.19 10.2-17.19-10.2-17.19 10.2-17.18-10.2-17.19 10.2-17.19-10.2-17.19 10.2-17.19-10.2-17.19 10.2-17.18-10.2-17.19 10.2-17.19-10.2-17.19 10.2-17.19-10.2-17.19 10.2-17.18-10.2-17.19 10.2-17.19-10.2-17.19 10.2-17.19-10.2-17.19 10.2-17.18-10.2-17.19 10.2-17.19-10.2-17.19 10.2-17.19-10.2-17.19 10.2-17.18-10.2-17.19 10.2-17.19-10.2-17.19 10.2-17.19-10.2-17.19 10.2-17.18-10.2-17.19 10.2-17.19-10.2-17.19 10.2-17.19-10.2-17.19 10.2-17.18-10.2-17.19 10.2-17.19-10.2-17.19 10.2-17.19-10.2-17.19 10.2-17.18-10.2-17.19 10.2-17.19-10.2-17.19 10.2-17.04-10.11-17.04 10.11-17.19-10.2-17.18 10.2-17.19-10.2-17.19 10.2-17.19-10.2-17.19 10.2-17.19-10.2-17.19 10.2-17.19-10.2-17.19 10.2-17.19-10.2-17.19 10.2-17.19-10.2-17.19 10.2-17.19-10.2-17.19 10.2-17.19-10.2-17.19 10.2-17.19-10.2-17.19 10.2-17.19-10.2-17.19 10.2-17.19-10.2-17.19 10.2-17.19-10.2-17.19 10.2-17.19-10.2-17.19 10.2-17.19-10.2-17.19 10.2-17.19-10.2-17.19 10.2-17.19-10.2-17.19 10.2-17.19-10.2-17.19 10.2-17.19-10.2-17.19 10.2-17.19-10.2-17.19 10.2-17.19-10.2-17.19 10.2-17.19-10.2-17.19 10.2-17.19-10.2-17.19 10.2-17.19-10.2-17.19 10.2-17.19-10.2-17.19 10.2-17.19-10.2-17.19 10.2-17.19-10.2-17.19 10.2-17.19-10.2-17.19 10.2-17.1-10.2-17.19 10.2-21.04-12.49.84-.5h-1v-18z" fill="#a8f584" fill-rule="evenodd"/><g mask="url(#b)"><path d="M1000.36-6.57v.5zm1031 0h.5v-.5h-.5zm0 18v.5h.5v-.5zm-.68 0v-.5h-1.82l1.56.93zm.84.5l.26.43.72-.43-.72-.43zm-21.04 12.49l-.25.43.25.15.26-.15zm-17.18-10.2l.25-.43-.25-.15-.26.15zm-17.19 10.2l-.26.43.26.15.25-.15zm-17.19-10.2l.25-.43-.25-.15-.26.15zm-17.19 10.2l-.25.43.25.15.26-.15zm-17.19-10.2l.26-.43-.26-.15-.25.15zm-17.19 10.2l-.25.43.25.15.26-.15zm-17.19-10.2l.26-.43-.26-.15-.25.15zm-17.18 10.2l-.26.43.26.15.25-.15zm-17.19-10.2l.25-.43-.25-.15-.26.15zm-17.19 10.2l-.26.43.26.15.26-.15zm-17.19-10.2l.26-.43-.26-.15-.25.15zm-17.19 10.2l-.25.43.25.15.26-.15zm-17.18-10.2l.25-.43-.25-.15-.26.15zm-17.19 10.2l-.26.43.26.15.25-.15zm-17.19-10.2l.25-.43-.25-.15-.26.15zm-17.19 10.2l-.25.43.25.15.26-.15zm-17.19-10.2l.26-.43-.26-.15-.25.15zm-17.19 10.2l-.25.43.25.15.26-.15zm-17.18-10.2l.25-.43-.25-.15-.26.15zm-17.19 10.2l-.26.43.26.15.25-.15zm-17.19-10.2l.25-.43-.25-.15-.26.15zm-17.19 10.2l-.25.43.25.15.26-.15zm-17.19-10.2l.26-.43-.26-.15-.25.15zm-17.19 10.2l-.25.43.25.15.26-.15zm-17.18-10.2l.25-.43-.25-.15-.26.15zm-17.19 10.2l-.26.43.26.15.25-.15zm-17.19-10.2l.25-.43-.25-.15-.26.15zm-17.19 10.2l-.25.43.25.15.26-.15zm-17.19-10.2l.26-.43-.26-.15-.25.15zm-17.19 10.2l-.25.43.25.15.26-.15zm-17.18-10.2l.25-.43-.25-.15-.26.15zm-17.19 10.2l-.26.43.26.15.25-.15zm-17.19-10.2l.25-.43-.25-.15-.26.15zm-17.19 10.2l-.25.43.25.15.26-.15zm-17.19-10.2l.26-.43-.26-.15-.25.15zm-17.19 10.2l-.25.43.25.15.26-.15zm-17.18-10.2l.25-.43-.25-.15-.26.15zm-17.19 10.2l-.26.43.26.15.25-.15zm-17.19-10.2l.25-.43-.25-.15-.26.15zm-17.19 10.2l-.25.43.25.15.26-.15zm-17.19-10.2l.26-.43-.26-.15-.25.15zm-17.19 10.2l-.25.43.25.15.26-.15zm-17.18-10.2l.25-.43-.25-.15-.26.15zm-17.19 10.2l-.26.43.26.15.25-.15zm-17.19-10.2l.25-.43-.25-.15-.26.15zm-17.19 10.2l-.26.43.26.15.26-.15zm-17.19-10.2l.26-.43-.26-.15-.25.15zm-17.19 10.2l-.25.43.25.15.26-.15zm-17.18-10.2l.25-.43-.25-.15-.26.15zm-17.19 10.2l-.26.43.26.15.25-.15zm-17.19-10.2l.25-.43-.25-.15-.26.15zm-17.19 10.2l-.25.43.25.15.26-.15zm-17.19-10.2l.26-.43-.26-.15-.25.15zm-17.19 10.2l-.25.43.25.15.26-.15zm-17.18-10.2l.25-.43-.25-.15-.26.15zm-17.19 10.2l-.26.43.26.15.25-.15zm-17.19-10.2l.25-.43-.25-.15-.26.15zm-17.19 10.2l-.25.43.25.15.26-.15zm-17.04-10.11l.26-.43-.26-.15-.25.15zm-17.04 10.11l-.25.43.25.15.26-.15zm-17.19-10.2l.26-.43-.26-.15-.25.15zm-17.18 10.2l-.26.43.26.15.26-.15zm-17.19-10.2l.26-.43-.26-.15-.26.15zm-17.19 10.2l-.26.43.26.15.26-.15zm-17.19-10.2l.26-.43-.26-.15-.26.15zm-17.19 10.2l-.26.43.26.15.26-.15zm-17.19-10.2l.26-.43-.26-.15-.26.15zm-17.19 10.2l-.26.43.26.15.26-.15zm-17.19-10.2l.26-.43-.26-.15-.26.15zm-17.19 10.2l-.26.43.26.15.26-.15zm-17.19-10.2l.26-.43-.26-.15-.26.15zm-17.19 10.2l-.26.43.26.15.26-.15zm-17.19-10.2l.26-.43-.26-.15-.26.15zm-17.19 10.2l-.26.43.26.15.26-.15zm-17.19-10.2l.26-.43-.26-.15-.26.15zm-17.19 10.2l-.26.43.26.15.26-.15zm-17.19-10.2l.26-.43-.26-.15-.26.15zm-17.19 10.2l-.26.43.26.15.26-.15zm-17.19-10.2l.26-.43-.26-.15-.26.15zm-17.19 10.2l-.26.43.26.15.26-.15zm-17.19-10.2l.26-.43-.26-.15-.26.15zm-17.19 10.2l-.26.43.26.15.26-.15zm-17.19-10.2l.26-.43-.26-.15-.26.15zm-17.19 10.2l-.26.43.26.15.26-.15zm-17.19-10.2l.26-.43-.26-.15-.26.15zm-17.19 10.2l-.26.43.26.15.26-.15zm-17.19-10.2l.26-.43-.26-.15-.26.15zm-17.19 10.2l-.26.43.26.15.26-.15zm-17.19-10.2l.26-.43-.26-.15-.26.15zm-17.19 10.2l-.26.43.26.15.26-.15zm-17.19-10.2l.26-.43-.26-.15-.26.15zm-17.19 10.2l-.25.43.25.15.26-.15zm-17.19-10.2l.26-.43-.26-.15-.26.15zm-17.19 10.2l-.26.43.26.15.26-.15zm-17.19-10.2l.26-.43-.26-.15-.26.15zm-17.19 10.2l-.26.43.26.15.26-.15zm-17.19-10.2l.26-.43-.26-.15-.26.15zm-17.19 10.2l-.26.43.26.15.25-.15zm-17.19-10.2l.26-.43-.26-.15-.26.15zm-17.19 10.2l-.26.43.26.15.26-.15zm-17.19-10.2l.25-.43-.25-.15-.26.15zm-17.19 10.2l-.25.43.25.15.26-.15zm-17.19-10.2l.26-.43-.26-.15-.26.15zm-17.19 10.2l-.26.43.26.15.26-.15zm-17.19-10.2l.26-.43-.26-.15-.26.15zm-17.19 10.2l-.26.43.26.15.25-.15zm-17.19-10.2l.25-.43-.25-.15-.26.15zm-17.19 10.2l-.26.43.26.15.26-.15zm-17.19-10.2l.26-.43-.26-.15-.25.15zm-17.19 10.2l-.25.43.25.15.26-.15zm-17.19-10.2l.25-.43-.25-.15-.26.15zm-17.19 10.2l-.26.43.26.15.25-.15zm-17.19-10.2l.26-.43-.26-.15-.25.15zm-17.19 10.2l-.26.43.26.15.26-.15zm-17.19-10.2l.26-.43-.26-.15-.26.15zm-17.19 10.2l-.26.43.26.15.26-.15zm-17.1-10.2l.25-.43-.26-.15-.26.15.26.43zm-17.19 10.2l-.26.43.26.15.26-.15zm-21.04-12.49l-.26-.43-.72.43.72.43zm.84-.5l.26.43 1.57-.93h-1.82v.5zm-1 0h-.5v.5h.5zm0-18v-.5h-.5v.5zm1031 0v-.5zm8 .5h1031v-1h-1031zm1030.5-.5v18h1v-18zm.5 17.5h-.68v1h.68zm-.94.93l.85.5.51-.86-.84-.5zm.85-.36l-21.04 12.49.51.86 21.04-12.49zm-20.53 12.49l-17.19-10.2-.51.86 17.19 10.2zm-17.7-10.2l-17.19 10.2.51.86 17.19-10.2zm-16.68 10.2l-17.19-10.2-.51.86 17.19 10.2zm-17.7-10.2l-17.18 10.2.51.86 17.18-10.2zm-16.67 10.2l-17.19-10.2-.51.86 17.19 10.2zm-17.7-10.2l-17.19 10.2.51.86 17.19-10.2zm-16.68 10.2l-17.19-10.2-.51.86 17.19 10.2zm-17.7-10.2l-17.19 10.2.51.86 17.19-10.2zm-16.68 10.2l-17.19-10.2-.51.86 17.19 10.2zm-17.7-10.2l-17.19 10.2.52.86 17.18-10.2zm-16.67 10.2l-17.19-10.2-.51.86 17.18 10.2zm-17.7-10.2l-17.19 10.2.51.86 17.19-10.2zm-16.68 10.2l-17.19-10.2-.51.86 17.19 10.2zm-17.7-10.2l-17.19 10.2.51.86 17.19-10.2zm-16.68 10.2l-17.19-10.2-.51.86 17.19 10.2zm-17.7-10.2l-17.18 10.2.51.86 17.18-10.2zm-16.67 10.2l-17.19-10.2-.51.86 17.19 10.2zm-17.7-10.2l-17.19 10.2.51.86 17.19-10.2zm-16.68 10.2l-17.19-10.2-.51.86 17.19 10.2zm-17.7-10.2l-17.19 10.2.51.86 17.19-10.2zm-16.68 10.2l-17.19-10.2-.51.86 17.19 10.2zm-17.7-10.2l-17.18 10.2.51.86 17.18-10.2zm-16.67 10.2l-17.19-10.2-.51.86 17.19 10.2zm-17.7-10.2l-17.19 10.2.51.86 17.19-10.2zm-16.68 10.2l-17.19-10.2-.51.86 17.19 10.2zm-17.7-10.2l-17.19 10.2.51.86 17.19-10.2zm-16.68 10.2l-17.19-10.2-.51.86 17.19 10.2zm-17.7-10.2l-17.18 10.2.51.86 17.18-10.2zm-16.67 10.2l-17.19-10.2-.51.86 17.19 10.2zm-17.7-10.2l-17.19 10.2.51.86 17.19-10.2zm-16.68 10.2l-17.19-10.2-.51.86 17.19 10.2zm-17.7-10.2l-17.19 10.2.51.86 17.19-10.2zm-16.68 10.2l-17.19-10.2-.51.86 17.19 10.2zm-17.7-10.2l-17.18 10.2.51.86 17.18-10.2zm-16.67 10.2l-17.19-10.2-.51.86 17.19 10.2zm-17.7-10.2l-17.19 10.2.51.86 17.19-10.2zm-16.68 10.2l-17.19-10.2-.51.86 17.19 10.2zm-17.7-10.2l-17.19 10.2.51.86 17.19-10.2zm-16.68 10.2l-17.19-10.2-.51.86 17.19 10.2zm-17.7-10.2l-17.18 10.2.51.86 17.18-10.2zm-16.67 10.2l-17.19-10.2-.51.86 17.19 10.2zm-17.7-10.2l-17.19 10.2.51.86 17.19-10.2zm-16.68 10.2l-17.19-10.2-.51.86 17.19 10.2zm-17.7-10.2l-17.19 10.2.51.86 17.19-10.2zm-16.68 10.2l-17.19-10.2-.51.86 17.19 10.2zm-17.7-10.2l-17.19 10.2.52.86 17.18-10.2zm-16.67 10.2l-17.19-10.2-.51.86 17.18 10.2zm-17.7-10.2l-17.19 10.2.51.86 17.19-10.2zm-16.68 10.2l-17.19-10.2-.51.86 17.19 10.2zm-17.7-10.2l-17.19 10.2.51.86 17.19-10.2zm-16.68 10.2l-17.19-10.2-.51.86 17.19 10.2zm-17.7-10.2l-17.18 10.2.51.86 17.18-10.2zm-16.67 10.2l-17.19-10.2-.51.86 17.19 10.2zm-17.7-10.2l-17.19 10.2.51.86 17.19-10.2zm-16.68 10.2l-17.19-10.2-.51.86 17.19 10.2zm-17.7-10.2l-17.19 10.2.51.86 17.19-10.2zm-16.68 10.2L1031 13.79l-.51.86 17.19 10.2zm-17.7-10.2l-17.18 10.2.51.86 17.18-10.2zm-16.67 10.2l-17.04-10.11-.51.86 17.04 10.11zm-17.55-10.11l-17.04 10.11.51.86 17.04-10.11zm-16.53 10.11l-17.19-10.2-.51.86 17.19 10.2zm-17.7-10.2l-17.19 10.2.51.86 17.19-10.2zm-16.68 10.2l-17.19-10.2-.51.86 17.19 10.2zm-17.7-10.2l-17.19 10.2.51.86 17.19-10.2zm-16.68 10.2l-17.19-10.2-.51.86 17.19 10.2zm-17.7-10.2l-17.19 10.2.51.86 17.19-10.2zm-16.68 10.2l-17.19-10.2-.51.86 17.19 10.2zm-17.7-10.2l-17.19 10.2.51.86 17.19-10.2zm-16.68 10.2l-17.19-10.2-.51.86 17.19 10.2zm-17.7-10.2l-17.19 10.2.51.86 17.19-10.2zm-16.68 10.2l-17.19-10.2-.51.86 17.19 10.2zm-17.7-10.2l-17.19 10.2.51.86 17.19-10.2zm-16.68 10.2l-17.19-10.2-.51.86 17.19 10.2zm-17.7-10.2l-17.19 10.2.51.86 17.19-10.2zm-16.68 10.2l-17.19-10.2-.51.86 17.19 10.2zm-17.7-10.2l-17.19 10.2.51.86 17.19-10.2zm-16.68 10.2l-17.19-10.2-.51.86 17.19 10.2zM687 13.79l-17.19 10.2.51.86 17.19-10.2zm-16.68 10.2l-17.19-10.2-.51.86 17.19 10.2zm-17.7-10.2l-17.19 10.2.51.86 17.19-10.2zm-16.68 10.2l-17.19-10.2-.51.86 17.19 10.2zm-17.7-10.2l-17.19 10.2.51.86 17.19-10.2zm-16.68 10.2l-17.19-10.2-.51.86 17.19 10.2zm-17.7-10.2l-17.19 10.2.51.86 17.19-10.2zm-16.68 10.2l-17.19-10.2-.51.86 17.19 10.2zm-17.7-10.2l-17.19 10.2.51.86 17.19-10.2zm-16.68 10.2l-17.19-10.2-.51.86 17.19 10.2zm-17.7-10.2l-17.19 10.2.51.86 17.19-10.2zm-16.68 10.2l-17.19-10.2-.51.86 17.19 10.2zm-17.7-10.2l-17.19 10.2.51.86 17.19-10.2zm-16.68 10.2l-17.19-10.2-.51.86 17.19 10.2zm-17.7-10.2l-17.19 10.2.51.86 17.19-10.2zm-16.68 10.2l-17.19-10.2-.51.86 17.19 10.2zm-17.7-10.2l-17.19 10.2.51.86 17.19-10.2zm-16.68 10.2l-17.19-10.2-.51.86 17.19 10.2zm-17.7-10.2l-17.19 10.2.51.86 17.19-10.2zm-16.68 10.2l-17.19-10.2-.51.86 17.19 10.2zm-17.7-10.2l-17.19 10.2.51.86 17.19-10.2zm-16.68 10.2l-17.19-10.2-.51.86 17.19 10.2zm-17.7-10.2l-17.19 10.2.51.86 17.19-10.2zm-16.68 10.2l-17.19-10.2-.51.86 17.19 10.2zm-17.7-10.2l-17.19 10.2.51.86 17.19-10.2zm-16.68 10.2l-17.19-10.2-.51.86 17.19 10.2zm-17.7-10.2l-17.19 10.2.51.86 17.19-10.2zm-16.68 10.2l-17.19-10.2-.51.86 17.19 10.2zm-17.7-10.2l-17.19 10.2.51.86 17.19-10.2zM189 23.99l-17.19-10.2-.51.86 17.19 10.2zm-17.7-10.2l-17.19 10.2.51.86 17.19-10.2zm-16.68 10.2l-17.19-10.2-.51.86 17.19 10.2zm-17.7-10.2l-17.19 10.2.51.86 17.19-10.2zm-16.68 10.2l-17.19-10.2-.51.86 17.19 10.2zm-17.7-10.2l-17.19 10.2.51.86 17.19-10.2zm-16.68 10.2l-17.19-10.2-.51.86 17.19 10.2zm-17.7-10.2l-17.19 10.2.51.86 17.19-10.2zm-16.68 10.2l-17.19-10.2-.51.86 17.19 10.2zm-17.7-10.2l-17.19 10.2.51.86 17.19-10.2zM17.1 23.99L0 13.79l-.51.86 17.19 10.2.51-.86zM-.51 13.79l-17.19 10.2.51.86L0 14.65zm-16.68 10.2L-38.23 11.5l-.51.86 21.04 12.49zm-21.04-11.63l.84-.5-.51-.86-.84.5zm.59-1.43h-1v1h1zm-.5.5v-18h-1v18zm-.5-17.5h1031v-1h-1031zm1031 0h8v-1h-8v1z"/></g><path d="M1000.36-15.57h1031v18h-.68l.84.5-21.04 12.49-17.18-10.2-17.19 10.2-17.19-10.2-17.19 10.2-17.19-10.2-17.19 10.2-17.19-10.2-17.18 10.2-17.19-10.2-17.19 10.2-17.19-10.2-17.19 10.2-17.18-10.2-17.19 10.2-17.19-10.2-17.19 10.2-17.19-10.2-17.19 10.2-17.18-10.2-17.19 10.2-17.19-10.2-17.19 10.2-17.19-10.2-17.19 10.2-17.18-10.2-17.19 10.2-17.19-10.2-17.19 10.2-17.19-10.2-17.19 10.2-17.18-10.2-17.19 10.2-17.19-10.2-17.19 10.2-17.19-10.2-17.19 10.2-17.18-10.2-17.19 10.2-17.19-10.2-17.19 10.2-17.19-10.2-17.19 10.2-17.18-10.2-17.19 10.2-17.19-10.2-17.19 10.2-17.19-10.2-17.19 10.2-17.18-10.2-17.19 10.2-17.19-10.2-17.19 10.2-17.19-10.2-17.19 10.2-17.18-10.2-17.19 10.2-17.19-10.2-17.19 10.2-17.04-10.11-17.04 10.11-17.19-10.2-17.18 10.2-17.19-10.2-17.19 10.2-17.19-10.2-17.19 10.2-17.19-10.2-17.19 10.2-17.19-10.2-17.19 10.2-17.19-10.2-17.19 10.2-17.19-10.2-17.19 10.2-17.19-10.2-17.19 10.2-17.19-10.2-17.19 10.2-17.19-10.2-17.19 10.2-17.19-10.2-17.19 10.2-17.19-10.2-17.19 10.2-17.19-10.2-17.19 10.2-17.19-10.2-17.19 10.2-17.19-10.2-17.19 10.2-17.19-10.2-17.19 10.2-17.19-10.2-17.19 10.2-17.19-10.2-17.19 10.2-17.19-10.2-17.19 10.2-17.19-10.2-17.19 10.2-17.19-10.2-17.19 10.2-17.19-10.2-17.19 10.2-17.19-10.2-17.19 10.2-17.19-10.2-17.19 10.2-17.19-10.2-17.19 10.2-17.19-10.2-17.19 10.2-17.19-10.2-17.19 10.2-17.19-10.2-17.19 10.2-17.1-10.2-17.19 10.2-21.04-12.49.84-.5h-1v-18z" fill="#ffc9b8" fill-rule="evenodd"/><g mask="url(#c)"><path d="M1000.36-15.57v.5zm1031 0h.5v-.5h-.5zm0 18v.5h.5v-.5zm-.68 0v-.5h-1.82l1.56.93zm.84.5l.26.43.72-.43-.72-.43zm-21.04 12.49l-.25.43.25.15.26-.15zm-17.18-10.2l.25-.43-.25-.15-.26.15zm-17.19 10.2l-.26.43.26.15.25-.15zm-17.19-10.2l.25-.43-.25-.15-.26.15zm-17.19 10.2l-.25.43.25.15.26-.15zm-17.19-10.2l.26-.43-.26-.15-.25.15zm-17.19 10.2l-.25.43.25.15.26-.15zm-17.19-10.2l.26-.43-.26-.15-.25.15zm-17.18 10.2l-.26.43.26.15.25-.15zm-17.19-10.2l.25-.43-.25-.15-.26.15zm-17.19 10.2l-.26.43.26.15.26-.15zm-17.19-10.2l.26-.43-.26-.15-.25.15zm-17.19 10.2l-.25.43.25.15.26-.15zm-17.18-10.2l.25-.43-.25-.15-.26.15zm-17.19 10.2l-.26.43.26.15.25-.15zm-17.19-10.2l.25-.43-.25-.15-.26.15zm-17.19 10.2l-.25.43.25.15.26-.15zm-17.19-10.2l.26-.43-.26-.15-.25.15zm-17.19 10.2l-.25.43.25.15.26-.15zm-17.18-10.2l.25-.43-.25-.15-.26.15zm-17.19 10.2l-.26.43.26.15.25-.15zm-17.19-10.2l.25-.43-.25-.15-.26.15zm-17.19 10.2l-.25.43.25.15.26-.15zm-17.19-10.2l.26-.43-.26-.15-.25.15zm-17.19 10.2l-.25.43.25.15.26-.15zm-17.18-10.2l.25-.43-.25-.15-.26.15zm-17.19 10.2l-.26.43.26.15.25-.15zm-17.19-10.2l.25-.43-.25-.15-.26.15zm-17.19 10.2l-.25.43.25.15.26-.15zm-17.19-10.2l.26-.43-.26-.15-.25.15zm-17.19 10.2l-.25.43.25.15.26-.15zm-17.18-10.2l.25-.43-.25-.15-.26.15zm-17.19 10.2l-.26.43.26.15.25-.15zm-17.19-10.2l.25-.43-.25-.15-.26.15zm-17.19 10.2l-.25.43.25.15.26-.15zm-17.19-10.2l.26-.43-.26-.15-.25.15zm-17.19 10.2l-.25.43.25.15.26-.15zm-17.18-10.2l.25-.43-.25-.15-.26.15zm-17.19 10.2l-.26.43.26.15.25-.15zm-17.19-10.2l.25-.43-.25-.15-.26.15zm-17.19 10.2l-.25.43.25.15.26-.15zm-17.19-10.2l.26-.43-.26-.15-.25.15zm-17.19 10.2l-.25.43.25.15.26-.15zm-17.18-10.2l.25-.43-.25-.15-.26.15zm-17.19 10.2l-.26.43.26.15.25-.15zm-17.19-10.2l.25-.43-.25-.15-.26.15zm-17.19 10.2l-.26.43.26.15.26-.15zm-17.19-10.2l.26-.43-.26-.15-.25.15zm-17.19 10.2l-.25.43.25.15.26-.15zm-17.18-10.2l.25-.43-.25-.15-.26.15zm-17.19 10.2l-.26.43.26.15.25-.15zm-17.19-10.2l.25-.43-.25-.15-.26.15zm-17.19 10.2l-.25.43.25.15.26-.15zm-17.19-10.2l.26-.43-.26-.15-.25.15zm-17.19 10.2l-.25.43.25.15.26-.15zm-17.18-10.2l.25-.43-.25-.15-.26.15zm-17.19 10.2l-.26.43.26.15.25-.15zm-17.19-10.2l.25-.43-.25-.15-.26.15zm-17.19 10.2l-.25.43.25.15.26-.15zM996.52 5.31l.26-.43-.26-.15-.25.15zm-17.04 10.11l-.25.43.25.15.26-.15zm-17.19-10.2l.26-.43-.26-.15-.25.15zm-17.18 10.2l-.26.43.26.15.26-.15zm-17.19-10.2l.26-.43-.26-.15-.26.15zm-17.19 10.2l-.26.43.26.15.26-.15zm-17.19-10.2l.26-.43-.26-.15-.26.15zm-17.19 10.2l-.26.43.26.15.26-.15zm-17.19-10.2l.26-.43-.26-.15-.26.15zm-17.19 10.2l-.26.43.26.15.26-.15zm-17.19-10.2l.26-.43-.26-.15-.26.15zm-17.19 10.2l-.26.43.26.15.26-.15zM790.4 5.22l.26-.43-.26-.15-.26.15zm-17.19 10.2l-.26.43.26.15.26-.15zm-17.19-10.2l.26-.43-.26-.15-.26.15zm-17.19 10.2l-.26.43.26.15.26-.15zm-17.19-10.2l.26-.43-.26-.15-.26.15zm-17.19 10.2l-.26.43.26.15.26-.15zm-17.19-10.2l.26-.43-.26-.15-.26.15zm-17.19 10.2l-.26.43.26.15.26-.15zm-17.19-10.2l.26-.43-.26-.15-.26.15zm-17.19 10.2l-.26.43.26.15.26-.15zM618.5 5.22l.26-.43-.26-.15-.26.15zm-17.19 10.2l-.26.43.26.15.26-.15zm-17.19-10.2l.26-.43-.26-.15-.26.15zm-17.19 10.2l-.26.43.26.15.26-.15zm-17.19-10.2l.26-.43-.26-.15-.26.15zm-17.19 10.2l-.26.43.26.15.26-.15zm-17.19-10.2l.26-.43-.26-.15-.26.15zm-17.19 10.2l-.26.43.26.15.26-.15zm-17.19-10.2l.26-.43-.26-.15-.26.15zm-17.19 10.2l-.26.43.26.15.26-.15zM446.6 5.22l.26-.43-.26-.15-.26.15zm-17.19 10.2l-.25.43.25.15.26-.15zm-17.19-10.2l.26-.43-.26-.15-.26.15zm-17.19 10.2l-.26.43.26.15.26-.15zm-17.19-10.2l.26-.43-.26-.15-.26.15zm-17.19 10.2l-.26.43.26.15.26-.15zm-17.19-10.2l.26-.43-.26-.15-.26.15zm-17.19 10.2l-.26.43.26.15.25-.15zm-17.19-10.2l.26-.43-.26-.15-.26.15zm-17.19 10.2l-.26.43.26.15.26-.15zM274.7 5.22l.25-.43-.25-.15-.26.15zm-17.19 10.2l-.25.43.25.15.26-.15zm-17.19-10.2l.26-.43-.26-.15-.26.15zm-17.19 10.2l-.26.43.26.15.26-.15zm-17.19-10.2l.26-.43-.26-.15-.26.15zm-17.19 10.2l-.26.43.26.15.25-.15zm-17.19-10.2l.25-.43-.25-.15-.26.15zm-17.19 10.2l-.26.43.26.15.26-.15zm-17.19-10.2l.26-.43-.26-.15-.25.15zm-17.19 10.2l-.25.43.25.15.26-.15zM102.8 5.22l.25-.43-.25-.15-.26.15zm-17.19 10.2l-.26.43.26.15.25-.15zM68.42 5.22l.26-.43-.26-.15-.25.15zm-17.19 10.2l-.26.43.26.15.26-.15zM34.04 5.22l.26-.43-.26-.15-.26.15zm-17.19 10.2l-.26.43.26.15.26-.15zM-.25 5.22L0 4.79l-.26-.15-.26.15.26.43zm-17.19 10.2l-.26.43.26.15.26-.15zM-38.48 2.93l-.26-.43-.72.43.72.43zm.84-.5l.26.43 1.57-.93h-1.82v.5zm-1 0h-.5v.5h.5zm0-18v-.5h-.5v.5zm1031 0v-.5zm8 .5h1031v-1h-1031zm1030.5-.5v18h1v-18zm.5 17.5h-.68v1h.68zm-.94.93l.85.5.51-.86-.84-.5zm.85-.36l-21.04 12.49.51.86 21.04-12.49zm-20.53 12.49l-17.19-10.2-.51.86 17.19 10.2zm-17.7-10.2l-17.19 10.2.51.86 17.19-10.2zm-16.68 10.2l-17.19-10.2-.51.86 17.19 10.2zm-17.7-10.2l-17.18 10.2.51.86 17.18-10.2zm-16.67 10.2l-17.19-10.2-.51.86 17.19 10.2zm-17.7-10.2l-17.19 10.2.51.86 17.19-10.2zm-16.68 10.2l-17.19-10.2-.51.86 17.19 10.2zm-17.7-10.2l-17.19 10.2.51.86 17.19-10.2zm-16.68 10.2l-17.19-10.2-.51.86 17.19 10.2zm-17.7-10.2l-17.19 10.2.52.86 17.18-10.2zm-16.67 10.2l-17.19-10.2-.51.86 17.18 10.2zm-17.7-10.2l-17.19 10.2.51.86 17.19-10.2zm-16.68 10.2l-17.19-10.2-.51.86 17.19 10.2zm-17.7-10.2l-17.19 10.2.51.86 17.19-10.2zm-16.68 10.2l-17.19-10.2-.51.86 17.19 10.2zm-17.7-10.2l-17.18 10.2.51.86 17.18-10.2zm-16.67 10.2l-17.19-10.2-.51.86 17.19 10.2zm-17.7-10.2l-17.19 10.2.51.86 17.19-10.2zm-16.68 10.2l-17.19-10.2-.51.86 17.19 10.2zm-17.7-10.2l-17.19 10.2.51.86 17.19-10.2zm-16.68 10.2l-17.19-10.2-.51.86 17.19 10.2zm-17.7-10.2l-17.18 10.2.51.86 17.18-10.2zm-16.67 10.2l-17.19-10.2-.51.86 17.19 10.2zm-17.7-10.2l-17.19 10.2.51.86 17.19-10.2zm-16.68 10.2l-17.19-10.2-.51.86 17.19 10.2zm-17.7-10.2l-17.19 10.2.51.86 17.19-10.2zm-16.68 10.2l-17.19-10.2-.51.86 17.19 10.2zm-17.7-10.2l-17.18 10.2.51.86 17.18-10.2zm-16.67 10.2l-17.19-10.2-.51.86 17.19 10.2zm-17.7-10.2l-17.19 10.2.51.86 17.19-10.2zm-16.68 10.2l-17.19-10.2-.51.86 17.19 10.2zm-17.7-10.2l-17.19 10.2.51.86 17.19-10.2zm-16.68 10.2l-17.19-10.2-.51.86 17.19 10.2zm-17.7-10.2l-17.18 10.2.51.86 17.18-10.2zm-16.67 10.2l-17.19-10.2-.51.86 17.19 10.2zm-17.7-10.2l-17.19 10.2.51.86 17.19-10.2zm-16.68 10.2l-17.19-10.2-.51.86 17.19 10.2zm-17.7-10.2l-17.19 10.2.51.86 17.19-10.2zm-16.68 10.2l-17.19-10.2-.51.86 17.19 10.2zm-17.7-10.2l-17.18 10.2.51.86 17.18-10.2zm-16.67 10.2l-17.19-10.2-.51.86 17.19 10.2zm-17.7-10.2l-17.19 10.2.51.86 17.19-10.2zm-16.68 10.2l-17.19-10.2-.51.86 17.19 10.2zm-17.7-10.2l-17.19 10.2.51.86 17.19-10.2zm-16.68 10.2l-17.19-10.2-.51.86 17.19 10.2zm-17.7-10.2l-17.19 10.2.52.86 17.18-10.2zm-16.67 10.2l-17.19-10.2-.51.86 17.18 10.2zm-17.7-10.2l-17.19 10.2.51.86 17.19-10.2zm-16.68 10.2l-17.19-10.2-.51.86 17.19 10.2zM1168 4.79l-17.19 10.2.51.86 17.19-10.2zm-16.68 10.2l-17.19-10.2-.51.86 17.19 10.2zm-17.7-10.2l-17.18 10.2.51.86 17.18-10.2zm-16.67 10.2l-17.19-10.2-.51.86 17.19 10.2zm-17.7-10.2l-17.19 10.2.51.86 17.19-10.2zm-16.68 10.2l-17.19-10.2-.51.86 17.19 10.2zm-17.7-10.2l-17.19 10.2.51.86 17.19-10.2zm-16.68 10.2L1031 4.79l-.51.86 17.19 10.2zm-17.7-10.2l-17.18 10.2.51.86L1031 5.65zm-16.67 10.2L996.78 4.88l-.51.86 17.04 10.11zM996.27 4.88l-17.04 10.11.51.86 17.04-10.11zm-16.53 10.11l-17.19-10.2-.51.86 17.19 10.2zm-17.7-10.2l-17.19 10.2.51.86 17.19-10.2zm-16.68 10.2l-17.19-10.2-.51.86 17.19 10.2zm-17.7-10.2l-17.19 10.2.51.86 17.19-10.2zm-16.68 10.2l-17.19-10.2-.51.86 17.19 10.2zm-17.7-10.2l-17.19 10.2.51.86 17.19-10.2zm-16.68 10.2l-17.19-10.2-.51.86 17.19 10.2zm-17.7-10.2l-17.19 10.2.51.86 17.19-10.2zm-16.68 10.2l-17.19-10.2-.51.86 17.19 10.2zm-17.7-10.2l-17.19 10.2.51.86 17.19-10.2zm-16.68 10.2l-17.19-10.2-.51.86 17.19 10.2zm-17.7-10.2l-17.19 10.2.51.86 17.19-10.2zm-16.68 10.2l-17.19-10.2-.51.86 17.19 10.2zm-17.7-10.2l-17.19 10.2.51.86 17.19-10.2zm-16.68 10.2l-17.19-10.2-.51.86 17.19 10.2zm-17.7-10.2l-17.19 10.2.51.86 17.19-10.2zm-16.68 10.2l-17.19-10.2-.51.86 17.19 10.2zM687 4.79l-17.19 10.2.51.86 17.19-10.2zm-16.68 10.2l-17.19-10.2-.51.86 17.19 10.2zm-17.7-10.2l-17.19 10.2.51.86 17.19-10.2zm-16.68 10.2l-17.19-10.2-.51.86 17.19 10.2zm-17.7-10.2l-17.19 10.2.51.86 17.19-10.2zm-16.68 10.2l-17.19-10.2-.51.86 17.19 10.2zm-17.7-10.2l-17.19 10.2.51.86 17.19-10.2zm-16.68 10.2l-17.19-10.2-.51.86 17.19 10.2zm-17.7-10.2l-17.19 10.2.51.86 17.19-10.2zm-16.68 10.2l-17.19-10.2-.51.86 17.19 10.2zm-17.7-10.2l-17.19 10.2.51.86 17.19-10.2zm-16.68 10.2l-17.19-10.2-.51.86 17.19 10.2zm-17.7-10.2l-17.19 10.2.51.86 17.19-10.2zm-16.68 10.2l-17.19-10.2-.51.86 17.19 10.2zm-17.7-10.2l-17.19 10.2.51.86 17.19-10.2zm-16.68 10.2l-17.19-10.2-.51.86 17.19 10.2zm-17.7-10.2l-17.19 10.2.51.86 17.19-10.2zm-16.68 10.2l-17.19-10.2-.51.86 17.19 10.2zm-17.7-10.2l-17.19 10.2.51.86 17.19-10.2zm-16.68 10.2l-17.19-10.2-.51.86 17.19 10.2zm-17.7-10.2l-17.19 10.2.51.86 17.19-10.2zm-16.68 10.2l-17.19-10.2-.51.86 17.19 10.2zm-17.7-10.2l-17.19 10.2.51.86 17.19-10.2zm-16.68 10.2l-17.19-10.2-.51.86 17.19 10.2zm-17.7-10.2l-17.19 10.2.51.86 17.19-10.2zm-16.68 10.2l-17.19-10.2-.51.86 17.19 10.2zm-17.7-10.2l-17.19 10.2.51.86 17.19-10.2zm-16.68 10.2l-17.19-10.2-.51.86 17.19 10.2zm-17.7-10.2l-17.19 10.2.51.86 17.19-10.2zM189 14.99l-17.19-10.2-.51.86 17.19 10.2zm-17.7-10.2l-17.19 10.2.51.86 17.19-10.2zm-16.68 10.2l-17.19-10.2-.51.86 17.19 10.2zm-17.7-10.2l-17.19 10.2.51.86 17.19-10.2zm-16.68 10.2l-17.19-10.2-.51.86 17.19 10.2zm-17.7-10.2l-17.19 10.2.51.86 17.19-10.2zm-16.68 10.2L68.67 4.79l-.51.86 17.19 10.2zm-17.7-10.2l-17.19 10.2.51.86 17.19-10.2zm-16.68 10.2L34.29 4.79l-.51.86 17.19 10.2zm-17.7-10.2l-17.19 10.2.51.86 17.19-10.2zM17.1 14.99L0 4.79l-.51.86 17.19 10.2.51-.86zM-.51 4.79l-17.19 10.2.51.86L0 5.65zm-16.68 10.2L-38.23 2.5l-.51.86 21.04 12.49zM-38.23 3.36l.84-.5-.51-.86-.84.5zm.59-1.43h-1v1h1zm-.5.5v-18h-1v18zm-.5-17.5h1031v-1h-1031zm1031 0h8v-1h-8v1z"/></g></g></svg>