<svg viewBox="0 0 26 30" xmlns="http://www.w3.org/2000/svg"><clipPath id="a"><path d="M26 30l-26 .3V.5l26-.2z"/></clipPath><g clip-path="url(#a)"><path clip-rule="evenodd" d="M-38.1 22.9L-.5.9v15.4L25.8.9v15.4L52 .9v15.4L78.3.9v15.4L104.6.9v15.4L130.9.9v15.4L157.2.9v15.4L183.5.9v15.4L209.8.9v15.4L236.1.9v15.4L262.4.9v15.4L288.7.9v15.4L315 .9v15.4L341.3.9v15.4L367.6.9v15.4L393.9.9v15.4L420.2.9v15.4L446 .9v15.4L472.3.9v15.4L498.6.9v15.4L524.9.9v15.4L551 .9v15.4L577.3.9v15.4L603.6.9v15.4L629.9.9v15.4L656.2.9v15.4L682.5.9v15.4L708.8.9v15.4L735.1.9v15.4L761.4.9v15.4L787.7.9v15.4L814 .9v15.4L840.3.9v15.4L866.6.9v15.4L892.9.9v15.4L919.2.9v15.4L945 .9v15.4L971.3.9v15.4L997.6.9v15.4L1023.9.9v15.4L1050 .9v15.4L1076.3.9v15.4L1102.6.9v15.4L1128.9.9v15.4L1155.2.9v15.4L1181.5.9v15.4L1207.8.9v15.4L1234.1.9v15.4L1260.4.9v15.4L1286.7.9v15.4L1313 .9v15.4L1339.3.9v15.4L1365.6.9v15.4L1391.9.9v15.4L1418.2.9v15.4L1444 .9v15.4L1470.3.9v15.4L1496.6.9v15.4L1522.9.9v15.4L1549 .9v15.4L1575.3.9v15.4L1601.6.9v15.4L1627.9.9v15.4L1654.2.9v15.4L1680.5.9v15.4L1706.8.9v15.4L1733.1.9v15.4L1759.4.9v15.4L1785.7.9v15.4L1812 .9v15.4L1838.3.9v15.4L1864.6.9v15.4L1890.9.9v15.4L1917.2.9v15.4L1943.5.9v15.4L1969.8.9v15.4L1996.1.9v15.4L2022.4.9v15.4L2048 .9v15.4L2074.3.9v22z" fill="#dd57ff" fill-rule="evenodd"/><path d="M-.5.9h.2V.5l-.4.2zm-37.6 22l-.1-.2-.8.5h.9zm37.6-6.6h-.2v.4l.4-.2c-.1 0-.2-.2-.2-.2zM25.8.9h.2V.5l-.4.2zm0 15.4h-.2v.4l.4-.2c-.1 0-.2-.2-.2-.2zM52 .9h.2V.5l-.4.2zm0 15.4h-.2v.4l.4-.2c-.1 0-.2-.2-.2-.2zM78.3.9h.2V.5l-.4.2zm0 15.4H78v.4l.4-.2-.1-.2zM104.5.9h.2V.5l-.4.2zm0 15.4h-.2v.4l.4-.2-.2-.2zM130.8.9h.2V.5l-.4.2zm0 15.4h-.2v.4l.4-.2c-.1 0-.2-.2-.2-.2zM157.1.9h.2V.5l-.4.2zm0 15.4h-.2v.4l.4-.2c-.1 0-.2-.2-.2-.2zM183.3.9h.2V.5l-.4.2zm0 15.4h-.2v.4l.4-.2c-.1 0-.2-.2-.2-.2zM209.6.9h.2V.5l-.4.2zm0 15.4h-.2v.4l.4-.2c-.1 0-.2-.2-.2-.2zM235.8.9h.2V.5l-.4.2c.1 0 .2.2.2.2zm0 15.4h-.2v.4l.4-.2-.2-.2zM262.1.9h.2V.5l-.3.2.1.2zm0 15.4h-.2v.4l.4-.2c-.1 0-.2-.2-.2-.2zM288.4.9h.2V.5l-.4.2c.1 0 .2.2.2.2zm0 15.4h-.2v.4l.4-.2c-.1 0-.2-.2-.2-.2zM314.6.9h.2V.5l-.4.2c.1 0 .2.2.2.2zm0 15.4h-.2v.4l.4-.2-.2-.2zM340.9.9h.2V.5l-.4.2c.1 0 .2.2.2.2zm0 15.4h-.2v.4l.4-.2c-.1 0-.2-.2-.2-.2zM367.2.9h.2V.5l-.4.2.2.2zm0 15.4h-.2v.4l.4-.2c-.1 0-.2-.2-.2-.2zM393.4.9h.2V.5l-.4.2c.1 0 .2.2.2.2zm0 15.4h-.2v.4l.4-.2c-.1 0-.2-.2-.2-.2zM419.7.9h.2V.5l-.4.2c.1 0 .2.2.2.2zm0 15.4h-.2v.4l.4-.2c-.1 0-.2-.2-.2-.2zM446 .9h.2V.5l-.4.2.2.2zm0 15.4h-.2v.4l.4-.2c-.1 0-.2-.2-.2-.2zM472.2.9h.2V.5l-.4.2c.1 0 .2.2.2.2zm0 15.4h-.2v.4l.4-.2c-.1 0-.2-.2-.2-.2zM498.5.9h.2V.5l-.4.2c.1 0 .2.2.2.2zm0 15.4h-.2v.4l.4-.2c-.1 0-.2-.2-.2-.2zM524.8.9h.2V.5l-.4.2.2.2zm0 15.4h-.2v.4l.4-.2c-.1 0-.2-.2-.2-.2zM551 .9h.2V.5l-.4.2c.1 0 .2.2.2.2zm0 15.4h-.2v.4l.4-.2c-.1 0-.2-.2-.2-.2zM577.3.9h.2V.5l-.4.2c.1 0 .2.2.2.2zm0 15.4h-.3v.4l.4-.2-.1-.2zM603.6.9h.2V.5l-.4.2.2.2zm0 15.4h-.2v.4l.4-.2c-.1 0-.2-.2-.2-.2zM629.8.9h.2V.5l-.4.2c.1 0 .2.2.2.2zm0 15.4h-.2v.4l.4-.2c-.1 0-.2-.2-.2-.2zM656.1.9h.2V.5l-.3.2.1.2zm0 15.4h-.2v.4l.4-.2c-.1 0-.2-.2-.2-.2zM682.4.9h.2V.5l-.4.2.2.2zm0 15.4h-.2v.4l.4-.2c-.1 0-.2-.2-.2-.2zM708.6.9h.2V.5l-.4.2c.1 0 .2.2.2.2zm0 15.4h-.2v.4l.4-.2c-.1 0-.2-.2-.2-.2zM734.9.9h.2V.5l-.4.2c.1 0 .2.2.2.2zm0 15.4h-.2v.4l.4-.2c-.1 0-.2-.2-.2-.2zM761.1.9h.2V.5l-.3.2.1.2zm0 15.4h-.2v.4l.4-.2-.2-.2zM787.4.9h.2V.5l-.4.2c.1 0 .2.2.2.2zm0 15.4h-.2v.4l.4-.2c-.1 0-.2-.2-.2-.2zM813.7.9h.2V.5l-.4.2c.1 0 .2.2.2.2zm0 15.4h-.2v.4l.4-.2c-.1 0-.2-.2-.2-.2zM839.9.9h.2V.5l-.4.2c.1 0 .2.2.2.2zm0 15.4h-.2v.4l.4-.2-.2-.2zM866.2.9h.2V.5l-.4.2c.1 0 .2.2.2.2zm0 15.4h-.2v.4l.4-.2c-.1 0-.2-.2-.2-.2zM892.5.9h.2V.5l-.4.2.2.2zm0 15.4h-.2v.4l.4-.2c-.1 0-.2-.2-.2-.2zM918.7.9h.2V.5l-.4.2c.1 0 .2.2.2.2zm0 15.4h-.2v.4l.4-.2-.2-.2zM945 .9h.2V.5l-.4.2c.1 0 .2.2.2.2zm0 15.4h-.2v.4l.4-.2c-.1 0-.2-.2-.2-.2zM971.3.9h.2V.5l-.4.2.2.2zm0 15.4h-.3v.4l.4-.2-.1-.2zM997.5.9h.2V.5l-.4.2c.1 0 .2.2.2.2zm0 15.4h-.2v.4l.4-.2c-.1 0-.2-.2-.2-.2zM1023.8.9h.2V.5l-.4.2c.1 0 .2.2.2.2zm0 15.4h-.2v.4l.4-.2c-.1 0-.2-.2-.2-.2zM1050 .9h.2V.5l-.4.2c.1 0 .2.2.2.2zm0 15.4h-.2v.4l.4-.2-.2-.2zM1076.3.9h.2V.5l-.4.2c.1 0 .2.2.2.2zm0 15.4h-.2v.4l.4-.2c-.1 0-.2-.2-.2-.2zM1102.6.9h.2V.5l-.4.2.2.2zm0 15.4h-.2v.4l.4-.2c-.1 0-.2-.2-.2-.2zM1128.8.9h.2V.5l-.4.2c.1 0 .2.2.2.2zm0 15.4h-.2v.4l.4-.2c-.1 0-.2-.2-.2-.2zM1155.1.9h.2V.5l-.4.2c.1 0 .2.2.2.2zm0 15.4h-.2v.4l.4-.2c-.1 0-.2-.2-.2-.2zM1181.3.9h.2V.5l-.4.2c.1 0 .2.2.2.2zm0 15.4h-.2v.4l.4-.2-.2-.2zM1207.6.9h.2V.5l-.4.2c.1 0 .2.2.2.2zm0 15.4h-.2v.4l.4-.2c-.1 0-.2-.2-.2-.2zM1233.9.9h.2V.5l-.4.2c.1 0 .2.2.2.2zm0 15.4h-.2v.4l.4-.2c-.1 0-.2-.2-.2-.2zM1260.1.9h.2V.5l-.4.2c.1 0 .2.2.2.2zm0 15.4h-.2v.4l.4-.2-.2-.2zM1286.4.9h.2V.5l-.4.2c.1 0 .2.2.2.2zm0 15.4h-.2v.4l.4-.2c-.1 0-.2-.2-.2-.2zM1312.7.9h.2V.5l-.4.2.2.2zm0 15.4h-.2v.4l.4-.2c-.1 0-.2-.2-.2-.2zM1338.9.9h.2V.5l-.4.2c.1 0 .2.2.2.2zm0 15.4h-.2v.4l.4-.2c-.1 0-.2-.2-.2-.2zM1365.2.9h.2V.5l-.4.2c.1 0 .2.2.2.2zm0 15.4h-.2v.4l.4-.2c-.1 0-.2-.2-.2-.2zM1391.4.9h.2V.5l-.4.2c.1 0 .2.2.2.2zm0 15.4h-.2v.4l.4-.2-.2-.2zM1417.7.9h.2V.5l-.4.2c.1 0 .2.2.2.2zm0 15.4h-.2v.4l.4-.2c-.1 0-.2-.2-.2-.2zM1444 .9h.2V.5l-.4.2.2.2zm0 15.4h-.2v.4l.4-.2c-.1 0-.2-.2-.2-.2zM1470.2.9h.2V.5l-.4.2c.1 0 .2.2.2.2zm0 15.4h-.2v.4l.4-.2c-.1 0-.2-.2-.2-.2zM1496.5.9h.2V.5l-.4.2c.1 0 .2.2.2.2zm0 15.4h-.2v.4l.4-.2c-.1 0-.2-.2-.2-.2zM1522.8.9h.2V.5l-.4.2.2.2zm0 15.4h-.2v.4l.4-.2c-.1 0-.2-.2-.2-.2zM1549 .9h.2V.5l-.4.2c.1 0 .2.2.2.2zm0 15.4h-.2v.4l.4-.2c-.1 0-.2-.2-.2-.2zM1575.3.9h.2V.5l-.4.2c.1 0 .2.2.2.2zm0 15.4h-.2v.4l.4-.2c-.1 0-.2-.2-.2-.2zM1601.5.9h.2V.5l-.4.2c.1 0 .2.2.2.2zm0 15.4h-.2v.4l.4-.2-.2-.2zM1627.8.9h.2V.5l-.4.2c.1 0 .2.2.2.2zm0 15.4h-.2v.4l.4-.2c-.1 0-.2-.2-.2-.2zM1654.1.9h.2V.5l-.4.2.2.2zm0 15.4h-.2v.4l.4-.2c-.1 0-.2-.2-.2-.2zM1680.3.9h.2V.5l-.4.2c.1 0 .2.2.2.2zm0 15.4h-.2v.4l.4-.2c-.1 0-.2-.2-.2-.2zM1706.6.9h.2V.5l-.4.2c.1 0 .2.2.2.2zm0 15.4h-.2v.4l.4-.2c-.1 0-.2-.2-.2-.2zM1732.8.9h.2V.5l-.4.2c.1 0 .2.2.2.2zm0 15.4h-.2v.4l.4-.2-.2-.2zM1759.1.9h.2V.5l-.4.2c.1 0 .2.2.2.2zm0 15.4h-.2v.4l.4-.2c-.1 0-.2-.2-.2-.2zM1785.4.9h.2V.5l-.4.2.2.2zm0 15.4h-.2v.4l.4-.2c-.1 0-.2-.2-.2-.2zM1811.6.9h.2V.5l-.4.2c.1 0 .2.2.2.2zm0 15.4h-.2v.4l.4-.2c-.1 0-.2-.2-.2-.2zM1837.9.9h.2V.5l-.4.2c.1 0 .2.2.2.2zm0 15.4h-.2v.4l.4-.2c-.1 0-.2-.2-.2-.2zM1864.2.9h.2V.5l-.4.2.2.2zm0 15.4h-.2v.4l.4-.2c-.1 0-.2-.2-.2-.2zM1890.4.9h.2V.5l-.4.2c.1 0 .2.2.2.2zm0 15.4h-.2v.4l.4-.2c-.1 0-.2-.2-.2-.2zM1916.7.9h.2V.5l-.4.2c.1 0 .2.2.2.2zm0 15.4h-.2v.4l.4-.2c-.1 0-.2-.2-.2-.2zM1942.9.9h.2V.5l-.4.2c.1 0 .2.2.2.2zm0 15.4h-.2v.4l.4-.2-.2-.2zM1969.2.9h.2V.5l-.4.2c.1 0 .2.2.2.2zm0 15.4h-.2v.4l.4-.2c-.1 0-.2-.2-.2-.2zM1995.5.9h.2V.5l-.4.2.2.2zm0 15.4h-.2v.4l.4-.2c-.1 0-.2-.2-.2-.2zM2021.7.9h.2V.5l-.4.2c.1 0 .2.2.2.2zm0 15.4h-.2v.4l.4-.2c-.1 0-.2-.2-.2-.2zM2048 .9h.2V.5l-.4.2c.1 0 .2.2.2.2zm0 15.4h-.2v.4l.4-.2c-.1 0-.2-.2-.2-.2zM2074.2.9h.2V.5l-.4.2c.1 0 .2.2.2.2zm0 22v.3h.2v-.3zM-.6.7l-37.6 22 .2.5 37.6-22zm.3 15.6V.9h-.5v15.4zM25.6.7L-.6 16l.2.5L25.9 1.1zm.4 15.6V.9h-.5v15.4zM51.9.7L25.6 16l.2.5L52.1 1.1zm.4 15.6V.9h-.5v15.4zM78.2.7L51.9 16l.2.5L78.4 1.1zm.3 15.6V.9H78v15.4zM104.4.7L78.2 16l.2.5 26.3-15.4zm.4 15.6V.9h-.5v15.4zM130.7.7L104.4 16l.2.5 26.3-15.4zm.3 15.6V.9h-.5v15.4zM156.9.7L130.7 16l.2.5 26.3-15.4zm.4 15.6V.9h-.5v15.4zM183.2.7L156.9 16l.2.5 26.3-15.4zm.4 15.6V.9h-.5v15.4zM209.5.7L183.2 16l.2.5 26.3-15.4zm.3 15.6V.9h-.5v15.4zM235.7.7L209.5 16l.2.5L236 1.1zm.4 15.6V.9h-.5v15.4zM262 .7L235.7 16l.2.5 26.3-15.4-.2-.4zm.4 15.6V.9h-.5v15.4zM288.3.7L262 16l.2.5 26.3-15.4-.2-.4zm.3 15.6V.9h-.5v15.4zM314.5.7L288.3 16l.2.5 26.3-15.4c-.1 0-.3-.4-.3-.4zm.4 15.6V.9h-.5v15.4zM340.8.7L314.5 16l.2.5L341 1.1l-.2-.4zm.3 15.6V.9h-.5v15.4zM367 .7L340.8 16l.2.5 26.3-15.4-.3-.4zm.4 15.6V.9h-.5v15.4zM393.3.7L367 16l.2.5 26.3-15.4-.2-.4zm.4 15.6V.9h-.5v15.4zM419.6.7L393.3 16l.2.5 26.3-15.4-.2-.4zm.3 15.6V.9h-.5v15.4zM445.8.7L419.5 16l.2.5L446 1.1c.1 0-.2-.4-.2-.4zm.4 15.6V.9h-.5v15.4zM472.1.7L445.8 16l.2.5 26.3-15.4-.2-.4zm.3 15.6V.9h-.5v15.4zM498.3.7L472.1 16l.2.5 26.3-15.4zm.4 15.6V.9h-.5v15.4zM524.6.7L498.3 16l.2.5 26.3-15.4zm.3 15.6V.9h-.5v15.4zM550.8.7L524.6 16l.2.5 26.3-15.4-.3-.4zm.4 15.6V.9h-.5v15.4zM577.1.7L550.8 16l.2.5 26.3-15.4-.2-.4zm.4 15.6V.9h-.5v15.4zM603.3.7L577.1 16l.2.5 26.3-15.4-.3-.4zm.4 15.6V.9h-.5v15.4zM629.6.7L603.3 16l.2.5 26.3-15.4-.2-.4zm.4 15.6V.9h-.5v15.4zM655.9.7L629.6 16l.2.5 26.3-15.4-.2-.4zm.3 15.6V.9h-.5v15.4zM682.1.7L655.9 16l.2.5 26.3-15.4-.3-.4zm.4 15.6V.9h-.5v15.4zM708.4.7L682.1 16l.2.5 26.3-15.4-.2-.4zm.3 15.6V.9h-.5v15.4zM734.6.7L708.4 16l.2.5 26.3-15.4-.3-.4zm.4 15.6V.9h-.5v15.4zM760.9.7L734.6 16l.2.5 26.3-15.4-.2-.4zm.3 15.6V.9h-.5v15.4zM787.1.7L760.9 16l.2.5 26.3-15.4-.3-.4zm.4 15.6V.9h-.5v15.4zM813.4.7L787.1 16l.2.5 26.3-15.4-.2-.4zm.4 15.6V.9h-.5v15.4zM839.7.7L813.4 16l.2.5 26.3-15.4-.2-.4zm.3 15.6V.9h-.5v15.4zM865.9.7L839.6 16l.2.5 26.3-15.4zm.4 15.6V.9h-.5v15.4zM892.2.7L865.9 16l.2.5 26.3-15.4zm.3 15.6V.9h-.5v15.4zM918.4.7L892.2 16l.2.5 26.3-15.4-.3-.4zm.4 15.6V.9h-.5v15.4zM944.7.7L918.4 16l.2.5 26.3-15.4-.2-.4zm.3 15.6V.9h-.5v15.4zM970.9.7L944.7 16l.2.5 26.3-15.4-.3-.4zm.4 15.6V.9h-.5v15.4zM997.2.7L970.9 16l.2.5 26.3-15.4-.2-.4zm.4 15.6V.9h-.5v15.4zM1023.5.7L997.2 16l.2.5 26.3-15.4-.2-.4zm.3 15.6V.9h-.5v15.4zM1049.7.7L1023.5 16l.2.5L1050 1.1l-.3-.4zm.4 15.6V.9h-.5v15.4zM1076 .7L1049.7 16l.2.5 26.3-15.4-.2-.4zm.4 15.6V.9h-.5v15.4zM1102.2.7L1076 16l.2.5 26.3-15.4-.3-.4zm.4 15.6V.9h-.5v15.4zM1128.5.7L1102.2 16l.2.5 26.3-15.4-.2-.4zm.4 15.6V.9h-.5v15.4zM1154.8.7L1128.5 16l.2.5L1155 1.1l-.2-.4zm.3 15.6V.9h-.5v15.4zM1181 .7L1154.8 16l.2.5 26.3-15.4-.3-.4zm.4 15.6V.9h-.5v15.4zM1207.3.7L1181 16l.2.5 26.3-15.4-.2-.4zm.4 15.6V.9h-.5v15.4zM1233.6.7L1207.3 16l.2.5 26.3-15.4-.2-.4zm.3 15.6V.9h-.5v15.4zM1259.8.7L1233.6 16l.2.5 26.3-15.4-.3-.4zm.4 15.6V.9h-.5v15.4zM1286.1.7L1259.8 16l.2.5 26.3-15.4-.2-.4zm.3 15.6V.9h-.5v15.4zM1312.3.7L1286.1 16l.2.5 26.3-15.4-.3-.4zm.4 15.6V.9h-.5v15.4zM1338.6.7L1312.3 16l.2.5 26.3-15.4-.2-.4zm.4 15.6V.9h-.5v15.4zM1364.9.7L1338.6 16l.2.5 26.3-15.4-.2-.4zm.3 15.6V.9h-.5v15.4zM1391.1.7L1364.9 16l.2.5 26.3-15.4-.3-.4zm.4 15.6V.9h-.5v15.4zM1417.4.7L1391.1 16l.2.5 26.3-15.4-.2-.4zm.4 15.6V.9h-.5v15.4zM1443.6.7L1417.4 16l.2.5 26.3-15.4-.3-.4zm.4 15.6V.9h-.5v15.4zM1469.9.7L1443.6 16l.2.5 26.3-15.4c.1 0-.2-.4-.2-.4zm.4 15.6V.9h-.5v15.4zM1496.2.7L1469.9 16l.2.5 26.3-15.4-.2-.4zm.3 15.6V.9h-.5v15.4zM1522.4.7L1496.2 16l.2.5 26.3-15.4-.3-.4zm.4 15.6V.9h-.5v15.4zM1548.7.7L1522.4 16l.2.5 26.3-15.4-.2-.4zm.4 15.6V.9h-.5v15.4zM1575 .7L1548.7 16l.2.5 26.3-15.4-.2-.4zm.3 15.6V.9h-.5v15.4zM1601.2.7L1575 16l.2.5 26.3-15.4-.3-.4zm.4 15.6V.9h-.5v15.4zM1627.5.7L1601.2 16l.2.5 26.3-15.4-.2-.4zm.4 15.6V.9h-.5v15.4zM1653.7.7L1627.5 16l.2.5L1654 1.1l-.3-.4zm.4 15.6V.9h-.5v15.4zM1680 .7L1653.7 16l.2.5 26.3-15.4-.2-.4zm.4 15.6V.9h-.5v15.4zM1706.3.7L1680 16l.2.5 26.3-15.4-.2-.4zm.3 15.6V.9h-.5v15.4zM1732.5.7L1706.3 16l.2.5 26.3-15.4-.3-.4zm.4 15.6V.9h-.5v15.4zM1758.8.7L1732.5 16l.2.5L1759 1.1l-.2-.4zm.4 15.6V.9h-.5v15.4zM1785.1.7L1758.8 16l.2.5 26.3-15.4-.2-.4zm.3 15.6V.9h-.5v15.4zM1811.3.7L1785.1 16l.2.5 26.3-15.4-.3-.4zm.4 15.6V.9h-.5v15.4zM1837.6.7L1811.3 16l.2.5 26.3-15.4-.2-.4zm.3 15.6V.9h-.5v15.4zM1863.8.7L1837.6 16l.2.5 26.3-15.4-.3-.4zm.4 15.6V.9h-.5v15.4zM1890.1.7L1863.8 16l.2.5 26.3-15.4-.2-.4zm.4 15.6V.9h-.5v15.4zM1916.4.7L1890.1 16l.2.5 26.3-15.4-.2-.4zm.3 15.6V.9h-.5v15.4zM1942.6.7L1916.4 16l.2.5 26.3-15.4-.3-.4zm.4 15.6V.9h-.5v15.4zM1968.9.7L1942.6 16l.2.5 26.3-15.4-.2-.4zm.4 15.6V.9h-.5v15.4zM1995.1.7L1968.9 16l.2.5 26.3-15.4-.3-.4zm.4 15.6V.9h-.5v15.4zM2021.4.7L1995.1 16l.2.5 26.3-15.4-.2-.4zm.4 15.6V.9h-.5v15.4zM2047.7.7L2021.4 16l.2.5 26.3-15.4-.2-.4zm.3 15.6V.9h-.5v15.4zM2073.9.7L2047.7 16l.2.5 26.3-15.4-.3-.4zm.4 22.2V.9h-.5v22zm-26.5.3h26.3v-.5h-26.3zm-11.3 0h11.3v-.5h-11.3zm-15 0h14.9v-.5h-14.9zm-11.3 0h11.3v-.5h-11.3zm-14.9 0h14.9v-.5h-14.9zm-11.4 0h11.3v-.5h-11.3zm-14.9 0h14.9v-.5H1969zm-11.3 0h11.3v-.5h-11.3zm-15 0h14.9v-.5h-14.9zm-11.3 0h11.3v-.5h-11.3zm-14.9 0h14.9v-.5h-14.9zm-11.3 0h11.3v-.5h-11.3zm-15 0h14.9v-.5h-14.9zm-11.3 0h11.3v-.5h-11.3zm-14.9 0h14.9v-.5H1864zm-11.4 0h11.3v-.5h-11.3zm-14.9 0h14.9v-.5h-14.9zm-11.3 0h11.3v-.5h-11.3zm-15 0h14.9v-.5h-14.9zm-11.3 0h11.3v-.5h-11.3zm-14.9 0h14.9v-.5h-14.9zm-11.3 0h11.3v-.5h-11.3zm-15 0h14.9v-.5h-14.9zm-11.3 0h11.3v-.5h-11.3zm-15 0h14.9v-.5h-14.9zm-11.3 0h11.3v-.5h-11.3zm-14.9 0h14.9v-.5h-14.9zm-11.3 0h11.3v-.5h-11.3zm-15 0h14.9v-.5h-14.9zm-11.3 0h11.3v-.5h-11.3zm-14.9 0h14.9v-.5h-14.9zm-11.4 0h11.3v-.5h-11.3zm-14.9 0h14.9v-.5h-14.9zm-11.3 0h11.3v-.5h-11.3zm-15 0h14.9v-.5h-14.9zm-11.3 0h11.3v-.5H1590zm-14.9 0h14.9v-.5h-14.9zm-11.3 0h11.3v-.5h-11.3zm-15 0h14.9v-.5h-14.9zm-11.3 0h11.3v-.5h-11.3zm-14.9 0h14.9v-.5h-14.9zm-11.4 0h11.3v-.5h-11.3zm-14.9 0h14.9v-.5h-14.9zm-11.3 0h11.3v-.5H1485zm-15 0h14.9v-.5H1470zm-11.3 0h11.3v-.5h-11.3zm-14.9 0h14.9v-.5h-14.9zm-11.4 0h11.3v-.5h-11.3zm-14.9 0h14.9v-.5h-14.9zm-11.3 0h11.3v-.5h-11.3zm-15 0h14.9v-.5h-14.9zm-11.3 0h11.3v-.5h-11.3zm-14.9 0h14.9v-.5H1365zm-11.3 0h11.3v-.5h-11.3zm-15 0h14.9v-.5h-14.9zm-11.3 0h11.3v-.5h-11.3zm-14.9 0h14.9v-.5h-14.9zm-11.4 0h11.3v-.5h-11.3zm-14.9 0h14.9v-.5h-14.9zm-11.3 0h11.3v-.5h-11.3zm-15 0h14.9v-.5h-14.9zm-11.3 0h11.3v-.5h-11.3zm-14.9 0h14.9v-.5h-14.9zm-11.3 0h11.3v-.5h-11.3zm-15 0h14.9v-.5h-14.9zm-11.3 0h11.3v-.5h-11.3zm-14.9 0h14.9v-.5h-14.9zm-11.4 0h11.3v-.5h-11.3zm-14.9 0h14.9v-.5h-14.9zm-11.3 0h11.3v-.5h-11.3zm-15 0h14.9v-.5h-14.9zm-11.3 0h11.3v-.5h-11.3zm-14.9 0h14.9v-.5h-14.9zm-11.4 0h11.3v-.5H1091zm-14.9 0h14.9v-.5h-14.9zm-11.3 0h11.3v-.5h-11.3zm-15 0h14.9v-.5h-14.9zm-11.3 0h11.3v-.5h-11.3zm-14.9 0h14.9v-.5h-14.9zm-11.3 0h11.3v-.5h-11.3zm-15 0h14.9v-.5h-14.9zm-11.3 0h11.3v-.5H986zm-14.9 0H986v-.5h-14.9zm-11.4 0H971v-.5h-11.3zm-14.9 0h14.9v-.5h-14.9zm-11.3 0h11.3v-.5h-11.3zm-15 0h14.9v-.5h-14.9zm-11.3 0h11.3v-.5h-11.3zm-14.9 0h14.9v-.5h-14.9zm-11.3 0h11.3v-.5H881zm-15 0h15v-.5h-15zm-11.3 0H866v-.5h-11.3zm-15 0h14.9v-.5h-14.9zm-11.3 0h11.3v-.5h-11.3zm-14.9 0h14.9v-.5h-14.9zm-11.3 0h11.3v-.5h-11.3zm-15 0h14.9v-.5h-14.9zm-11.3 0h11.3v-.5h-11.3zm-14.9 0h14.9v-.5H761zm-11.4 0H761v-.5h-11.3v.5zm-14.9 0h14.9v-.5h-14.9zm-11.3 0h11.3v-.5h-11.3zm-15 0h14.9v-.5h-14.9zm-11.3 0h11.3v-.5h-11.3zm-14.9 0h14.9v-.5h-14.9zm-11.4 0h11.3v-.5h-11.3zm-14.9 0h14.9v-.5h-14.9zm-11.3 0h11.3v-.5h-11.3zm-15 0h14.9v-.5h-14.9zm-11.3 0h11.3v-.5h-11.3zm-14.9 0h14.9v-.5h-14.9zm-11.3 0h11.3v-.5h-11.3zm-15 0H592v-.5h-14.9zm-11.3 0h11.3v-.5h-11.3zm-15 0h14.9v-.5h-14.9zm-11.3 0h11.3v-.5h-11.3zm-14.9 0h14.9v-.5h-14.9zm-11.3 0h11.3v-.5h-11.3zm-15 0h14.9v-.5h-14.9zm-11.3 0h11.3v-.5H487zm-15 0h15v-.5h-15zm-11.3 0H472v-.5h-11.3zm-14.9 0h14.9v-.5h-14.9zm-11.3 0h11.3v-.5h-11.3zm-15 0h14.9v-.5h-14.9zm-11.3 0h11.3v-.5h-11.3zm-14.9 0h14.9v-.5h-14.9zm-11.4 0h11.3v-.5h-11.3zm-14.9 0h14.9v-.5H367zm-11.3 0H367v-.5h-11.3zm-15 0h14.9v-.5h-14.9zm-11.3 0h11.3v-.5h-11.3zm-14.9 0h14.9v-.5h-14.9zm-11.4 0h11.3v-.5h-11.3zm-14.9 0h14.9v-.5h-14.9zm-11.3 0h11.3v-.5h-11.3zm-15 0h14.9v-.5h-14.9zm-11.3 0h11.3v-.5h-11.3zm-14.9 0h14.9v-.5h-14.9zm-11.3 0h11.3v-.5h-11.3zm-15 0h14.9v-.5h-14.9zm-11.3 0h11.3v-.5h-11.3zm-14.9 0h14.9v-.5h-14.9zm-11.4 0h11.3v-.5h-11.3zm-14.9 0h14.9v-.5h-14.9zm-11.3 0h11.3v-.5h-11.3zm-15 0h14.9v-.5h-14.9zm-11.3 0h11.3v-.5h-11.3zm-14.9 0h14.9v-.5h-14.9zm-11.4 0h11.3v-.5H93zm-14.9 0H93v-.5H78.1zm-11.3 0h11.3v-.5H66.8zm-15 0h14.9v-.5H51.8zm-11.3 0h11.3v-.5H40.5zm-14.9 0h14.9v-.5H25.6zm-11.3 0h11.3v-.5H14.3zm-15 0h14.9v-.5H-.7zm-11.3 0H-.7v-.5H-12zm-26.3 0H-12v-.5h-26.1v.5z"/><path clip-rule="evenodd" d="M-38.1 29.7l37.6-22v15.4L25.8 7.7v15.4L52 7.7v15.4L78.3 7.7v15.4l26.3-15.4v15.4l26.3-15.4v15.4l26.3-15.4v15.4l26.3-15.4v15.4l26.3-15.4v15.4l26.3-15.4v15.4l26.3-15.4v15.4l26.3-15.4v15.4L315 7.7v15.4l26.3-15.4v15.4l26.3-15.4v15.4l26.3-15.4v15.4l26.3-15.4v15.4L446 7.7v15.4l26.3-15.4v15.4l26.3-15.4v15.4l26.3-15.4v15.4L551 7.7v15.4l26.3-15.4v15.4l26.3-15.4v15.4l26.3-15.4v15.4l26.3-15.4v15.4l26.3-15.4v15.4l26.3-15.4v15.4l26.3-15.4v15.4l26.3-15.4v15.4l26.3-15.4v15.4L814 7.7v15.4l26-15.4v15.4l26.3-15.4v15.4l26.3-15.4v15.4l26.3-15.4v15.4L945 7.7v15.4l26.3-15.4v15.4l26.3-15.4v15.4l26.3-15.4v15.4l26.3-15.4v15.4l26.3-15.4v15.4l26.3-15.4v15.4l26.3-15.4v15.4l26.3-15.4v15.4l26.3-15.4v15.4L1208 7.7v15.4l26.3-15.4v15.4l26.3-15.4v15.4l26.3-15.4v15.4l26.3-15.4v15.4l26.3-15.4v15.4l26.3-15.4v15.4l26.3-15.4v15.4l26.3-15.4v15.4L1444 7.7v15.4l26.3-15.4v15.4l26.3-15.4v15.4l26.3-15.4v15.4L1549 7.7v15.4l26.3-15.4v15.4l26.3-15.4v15.4l26.3-15.4v15.4l26.3-15.4v15.4l26.3-15.4v15.4l26.3-15.4v15.4l26.3-15.4v15.4l26.3-15.4v15.4l26.3-15.4v15.4L1812 7.7v15.4l26.3-15.4v15.4l26.3-15.4v15.4l26.3-15.4v15.4l26.3-15.4v15.4L1943 7.7v15.4l26.3-15.4v15.4l26.3-15.4v15.4l26.3-15.4v15.4L2048 7.7v15.4l26.3-15.4v22z" fill="#6edde1" fill-rule="evenodd"/><path d="M-.5 7.7h.2v-.4l-.4.2zm-37.6 22l-.1-.2-.8.5h.9zm37.6-6.6h-.2v.4l.4-.2c-.1 0-.2-.2-.2-.2zM25.8 7.7h.2v-.4l-.4.2zm0 15.4h-.2v.4l.4-.2c-.1 0-.2-.2-.2-.2zM52 7.7h.2v-.4l-.4.2zm0 15.4h-.2v.4l.4-.2c-.1 0-.2-.2-.2-.2zM78.3 7.7h.2v-.4l-.4.2zm0 15.4H78v.4l.4-.2-.1-.2zm26.3-15.4h.2v-.4l-.4.2zm0 15.4h-.2v.4l.4-.2c-.1 0-.2-.2-.2-.2zm26.2-15.4h.2v-.4l-.4.2zm0 15.4h-.2v.4l.4-.2c-.1 0-.2-.2-.2-.2zm26.3-15.4h.2v-.4l-.3.2zm0 15.4h-.2v.4l.4-.2c-.1 0-.2-.2-.2-.2zm26.2-15.4h.2v-.4l-.4.2zm0 15.4h-.2v.4l.4-.2-.2-.2zm26.3-15.4h.2v-.4l-.4.2zm0 15.4h-.2v.4l.4-.2c-.1 0-.2-.2-.2-.2zm26.3-15.4h.2v-.4l-.4.2zm0 15.4h-.2v.4l.4-.2c-.1 0-.2-.2-.2-.2zm26.2-15.4h.2v-.4l-.3.2zm0 15.4h-.2v.4l.4-.2-.2-.2zm26.3-15.4h.2v-.4l-.4.2zm0 15.4h-.2v.4l.4-.2c-.1 0-.2-.2-.2-.2zm26.3-15.4h.2v-.4l-.4.2zm0 15.4h-.2v.4l.4-.2c-.1 0-.2-.2-.2-.2zm26.2-15.4h.2v-.4l-.4.2zm0 15.4h-.2v.4l.4-.2c-.1 0-.2-.2-.2-.2zm26.3-15.4h.2v-.4l-.4.2zm0 15.4h-.2v.4l.4-.2c-.1 0-.2-.2-.2-.2zm26.3-15.4h.2v-.4l-.4.2zm0 15.4h-.2v.4l.4-.2c-.1 0-.2-.2-.2-.2zm26.2-15.4h.2v-.4l-.4.2zm0 15.4h-.2v.4l.4-.2c-.1 0-.2-.2-.2-.2zM446 7.7h.2v-.4l-.4.2zm0 15.4h-.2v.4l.4-.2c-.1 0-.2-.2-.2-.2zm26.3-15.4h.2v-.4l-.4.2zm0 15.4h-.3v.4l.4-.2-.1-.2zm26.2-15.4h.2v-.4l-.4.2zm0 15.4h-.2v.4l.4-.2c-.1 0-.2-.2-.2-.2zm26.3-15.4h.2v-.4l-.4.2zm0 15.4h-.2v.4l.4-.2c-.1 0-.2-.2-.2-.2zm26.3-15.4h.2v-.4l-.4.2zm0 15.4h-.2v.4l.4-.2c-.1 0-.2-.2-.2-.2zm26.2-15.4h.2v-.4l-.4.2zm0 15.4h-.2v.4l.4-.2c-.1 0-.2-.2-.2-.2zm26.3-15.4h.2v-.4l-.4.2zm0 15.4h-.2v.4l.4-.2c-.1 0-.2-.2-.2-.2zm26.3-15.4h.2v-.4l-.4.2zm0 15.4h-.2v.4l.4-.2c-.1 0-.2-.2-.2-.2zm26.2-15.4h.2v-.4l-.3.2zm0 15.4h-.2v.4l.4-.2c-.1 0-.2-.2-.2-.2zm26.3-15.4h.2v-.4l-.4.2zm0 15.4h-.2v.4l.4-.2c-.1 0-.2-.2-.2-.2zm26.2-15.4h.2v-.4l-.4.2zm0 15.4h-.2v.4l.4-.2-.2-.2zm26.3-15.4h.2v-.4l-.4.2zm0 15.4h-.2v.4l.4-.2c-.1 0-.2-.2-.2-.2zm26.3-15.4h.2v-.4l-.4.2zm0 15.4h-.2v.4l.4-.2c-.1 0-.2-.2-.2-.2zm26.2-15.4h.2v-.4l-.4.2zm0 15.4h-.2v.4l.4-.2-.2-.2zm26.3-15.4h.2v-.4l-.4.2zm0 15.4h-.2v.4l.4-.2c-.1 0-.2-.2-.2-.2zM840 7.7h.2v-.4l-.4.2zm0 15.4h-.2v.4l.4-.2c-.1 0-.2-.2-.2-.2zm26.2-15.4h.2v-.4l-.4.2zm0 15.4h-.2v.4l.4-.2c-.1 0-.2-.2-.2-.2zm26.3-15.4h.2v-.4l-.4.2zm0 15.4h-.2v.4l.4-.2c-.1 0-.2-.2-.2-.2zm26.3-15.4h.2v-.4l-.4.2zm0 15.4h-.2v.4l.4-.2c-.1 0-.2-.2-.2-.2zM945 7.7h.2v-.4l-.4.2zm0 15.4h-.2v.4l.4-.2c-.1 0-.2-.2-.2-.2zm26.3-15.4h.2v-.4l-.4.2zm0 15.4h-.3v.4l.4-.2-.1-.2zm26.2-15.4h.2v-.4l-.4.2zm0 15.4h-.2v.4l.4-.2-.2-.2zm26.3-15.4h.2v-.4l-.4.2zm0 15.4h-.2v.4l.4-.2c-.1 0-.2-.2-.2-.2zm26.3-15.4h.2v-.4l-.4.2zm0 15.4h-.2v.4l.4-.2c-.1 0-.2-.2-.2-.2zm26.2-15.4h.2v-.4l-.4.2zm0 15.4h-.2v.4l.4-.2-.2-.2zm26.3-15.4h.2v-.4l-.4.2zm0 15.4h-.2v.4l.4-.2c-.1 0-.2-.2-.2-.2zm26.3-15.4h.2v-.4l-.4.2zm0 15.4h-.2v.4l.4-.2c-.1 0-.2-.2-.2-.2zm26.2-15.4h.2v-.4l-.4.2zm0 15.4h-.2v.4l.4-.2c-.1 0-.2-.2-.2-.2zm26.3-15.4h.2v-.4l-.4.2zm0 15.4h-.2v.4l.4-.2c-.1 0-.2-.2-.2-.2zm26.2-15.4h.2v-.4l-.4.2zm0 15.4h-.2v.4l.4-.2-.2-.2zm26.3-15.4h.2v-.4l-.4.2zm0 15.4h-.2v.4l.4-.2c-.1 0-.2-.2-.2-.2zm26.3-15.4h.2v-.4l-.4.2zm0 15.4h-.2v.4l.4-.2c-.1 0-.2-.2-.2-.2zm26.2-15.4h.2v-.4l-.4.2zm0 15.4h-.2v.4l.4-.2c-.1 0-.2-.2-.2-.2zm26.3-15.4h.2v-.4l-.4.2zm0 15.4h-.2v.4l.4-.2c-.1 0-.2-.2-.2-.2zM1339 7.7h.2v-.4l-.4.2zm0 15.4h-.2v.4l.4-.2c-.1 0-.2-.2-.2-.2zm26.2-15.4h.2v-.4l-.4.2zm0 15.4h-.2v.4l.4-.2c-.1 0-.2-.2-.2-.2zm26.3-15.4h.2v-.4l-.4.2zm0 15.4h-.2v.4l.4-.2c-.1 0-.2-.2-.2-.2zm26.2-15.4h.2v-.4l-.4.2zm0 15.4h-.2v.4l.4-.2-.2-.2zM1444 7.7h.2v-.4l-.4.2zm0 15.4h-.2v.4l.4-.2c-.1 0-.2-.2-.2-.2zm26.3-15.4h.2v-.4l-.4.2zm0 15.4h-.2v.4l.4-.2c-.1 0-.2-.2-.2-.2zm26.2-15.4h.2v-.4l-.4.2zm0 15.4h-.2v.4l.4-.2c-.1 0-.2-.2-.2-.2zm26.3-15.4h.2v-.4l-.4.2zm0 15.4h-.2v.4l.4-.2c-.1 0-.2-.2-.2-.2zM1549 7.7h.2v-.4l-.4.2zm0 15.4h-.2v.4l.4-.2-.2-.2zm26.3-15.4h.2v-.4l-.4.2zm0 15.4h-.2v.4l.4-.2c-.1 0-.2-.2-.2-.2zm26.3-15.4h.2v-.4l-.4.2zm0 15.4h-.2v.4l.4-.2c-.1 0-.2-.2-.2-.2zm26.2-15.4h.2v-.4l-.4.2zm0 15.4h-.2v.4l.4-.2c-.1 0-.2-.2-.2-.2zm26.3-15.4h.2v-.4l-.4.2zm0 15.4h-.2v.4l.4-.2c-.1 0-.2-.2-.2-.2zm26.3-15.4h.2v-.4l-.4.2zm0 15.4h-.2v.4l.4-.2c-.1 0-.2-.2-.2-.2zm26.2-15.4h.2v-.4l-.4.2zm0 15.4h-.2v.4l.4-.2c-.1 0-.2-.2-.2-.2zm26.3-15.4h.2v-.4l-.4.2zm0 15.4h-.2v.4l.4-.2c-.1 0-.2-.2-.2-.2zm26.2-15.4h.2v-.4l-.4.2zm0 15.4h-.2v.4l.4-.2-.2-.2zm26.3-15.4h.2v-.4l-.4.2zm0 15.4h-.2v.4l.4-.2c-.1 0-.2-.2-.2-.2zm26.3-15.4h.2v-.4l-.4.2zm0 15.4h-.2v.4l.4-.2c-.1 0-.2-.2-.2-.2zm26.2-15.4h.2v-.4l-.4.2zm0 15.4h-.2v.4l.4-.2c-.1 0-.2-.2-.2-.2zm26.3-15.4h.2v-.4l-.4.2zm0 15.4h-.2v.4l.4-.2c-.1 0-.2-.2-.2-.2zm26.2-15.4h.2v-.4l-.4.2zm0 15.4h-.2v.4l.4-.2-.2-.2zm26.3-15.4h.2v-.4l-.4.2zm0 15.4h-.2v.4l.4-.2c-.1 0-.2-.2-.2-.2zM1943 7.7h.2v-.4l-.4.2zm0 15.4h-.2v.4l.4-.2c-.1 0-.2-.2-.2-.2zm26.2-15.4h.2v-.4l-.4.2zm0 15.4h-.2v.4l.4-.2-.2-.2zm26.3-15.4h.2v-.4l-.4.2zm0 15.4h-.2v.4l.4-.2c-.1 0-.2-.2-.2-.2zm26.3-15.4h.2v-.4l-.4.2zm0 15.4h-.2v.4l.4-.2c-.1 0-.2-.2-.2-.2zM2048 7.7h.2v-.4l-.4.2zm0 15.4h-.2v.4l.4-.2c-.1 0-.2-.2-.2-.2zm26.3-15.4h.2v-.4l-.4.2zm0 22v.3h.2v-.3zM-.6 7.5l-37.6 22 .2.5L-.4 8zm.3 15.6V7.7h-.5v15.4zM25.6 7.5L-.6 22.9l.2.5L25.9 8l-.3-.5zm.4 15.6V7.7h-.5v15.4zM51.9 7.5L25.6 22.9l.2.5L52.1 8l-.2-.5zm.3 15.6V7.7h-.5v15.4zM78.1 7.5L51.9 22.9l.2.5L78.4 8zm.4 15.6V7.7H78v15.4zm25.9-15.6L78.1 22.9l.2.5L104.6 8zm.4 15.6V7.7h-.5v15.4zm25.8-15.6l-26.3 15.4.2.5L130.9 8zm.4 15.6V7.7h-.5v15.4zm25.9-15.6l-26.3 15.4.2.5L157.2 8zm.4 15.6V7.7h-.5v15.4zm25.9-15.6l-26.3 15.4.2.5L183.4 8l-.2-.5zm.3 15.6V7.7h-.5v15.4zm25.9-15.6l-26.3 15.4.2.5L209.7 8zm.4 15.6V7.7h-.5v15.4zm25.9-15.6l-26.3 15.4.2.5L235.9 8zm.3 15.6V7.7h-.5v15.4zm25.9-15.6l-26.3 15.4.2.5L262.2 8l-.3-.5zm.4 15.6V7.7h-.5v15.4zm25.9-15.6l-26.3 15.4.2.5L288.4 8l-.2-.5zm.3 15.6V7.7h-.5v15.4zm25.9-15.6l-26.3 15.4.2.5L314.7 8l-.3-.5zm.4 15.6V7.7h-.5v15.4zm25.9-15.6l-26.3 15.4.2.5L340.9 8l-.2-.5zm.4 15.6V7.7h-.5v15.4zm25.8-15.6l-26.3 15.4.2.5L367.2 8l-.3-.5zm.4 15.6V7.7h-.5v15.4zm25.9-15.6l-26.3 15.4.2.5L393.4 8l-.2-.5zm.4 15.6V7.7h-.5v15.4zm25.9-15.6l-26.3 15.4.2.5L419.7 8l-.2-.5zm.3 15.6V7.7h-.5v15.4zm25.9-15.6l-26.3 15.4.2.5L446 8l-.3-.5zm.4 15.6V7.7h-.5v15.4zM472 7.5l-26.3 15.4.2.5L472.2 8l-.2-.5zm.3 15.6V7.7h-.5v15.4zm25.9-15.6L472 22.9l.2.5L498.5 8zm.4 15.6V7.7h-.5v15.4zm25.9-15.6l-26.3 15.4.2.5L524.7 8zm.3 15.6V7.7h-.5v15.4zm25.9-15.6l-26.3 15.4.2.5L551 8l-.3-.5zm.4 15.6V7.7h-.5v15.4zM577 7.5l-26.3 15.4.2.5L577.2 8l-.2-.5zm.4 15.6V7.7h-.5v15.4zm25.9-15.6L577 22.9l.2.5L603.5 8l-.2-.5zm.3 15.6V7.7h-.5v15.4zm25.9-15.6l-26.3 15.4.2.5L629.7 8l-.2-.5zm.4 15.6V7.7h-.5v15.4zm25.9-15.6l-26.3 15.4.2.5L656 8l-.2-.5zm.3 15.6V7.7h-.5v15.4zM682 7.5l-26.3 15.4.2.5L682.3 8l-.3-.5zm.4 15.6V7.7h-.5v15.4zm25.9-15.6L682 22.9l.2.5L708.5 8l-.2-.5zm.3 15.6V7.7h-.5v15.4zm25.9-15.6l-26.3 15.4.2.5L734.8 8l-.3-.5zm.4 15.6V7.7h-.5v15.4zm25.9-15.6l-26.3 15.4.2.5L761 8l-.2-.5zm.3 15.6V7.7h-.5v15.4zM787 7.5l-26.3 15.4.2.5L787.3 8l-.3-.5zm.4 15.6V7.7h-.5v15.4zm25.9-15.6L787 22.9l.2.5L813.5 8l-.2-.5zm.4 15.6V7.7h-.5v15.4zm25.9-15.6l-26.3 15.4.2.5L839.8 8l-.2-.5zm.3 15.6V7.7h-.5v15.4zm25.9-15.6l-26.3 15.4.2.5L866 8zm.4 15.6V7.7h-.5v15.4zm25.9-15.6l-26.3 15.4.2.5L892.3 8zm.3 15.6V7.7h-.5v15.4zm25.9-15.6L892 22.9l.2.5L918.6 8l-.3-.5zm.4 15.6V7.7h-.5v15.4zm25.9-15.6l-26.3 15.4.2.5L944.8 8l-.2-.5zm.3 15.6V7.7h-.5v15.4zm25.9-15.6l-26.3 15.4.2.5L971.1 8l-.3-.5zm.4 15.6V7.7h-.5v15.4zm25.9-15.6l-26.3 15.4.2.5L997.3 8l-.2-.5zm.4 15.6V7.7h-.5v15.4zm25.9-15.6l-26.3 15.4.2.5L1023.6 8l-.2-.5zm.3 15.6V7.7h-.5v15.4zm25.9-15.6l-26.3 15.4.2.5L1049.9 8l-.3-.5zm.4 15.6V7.7h-.5v15.4zm25.9-15.6l-26.3 15.4.2.5L1076.1 8l-.2-.5zm.4 15.6V7.7h-.5v15.4zm25.8-15.6l-26.3 15.4.2.5L1102.4 8l-.3-.5zm.4 15.6V7.7h-.5v15.4zm25.9-15.6l-26.3 15.4.2.5L1128.6 8l-.2-.5zm.4 15.6V7.7h-.5v15.4zm25.9-15.6l-26.3 15.4.2.5L1154.9 8l-.2-.5zm.3 15.6V7.7h-.5v15.4zm25.9-15.6l-26.3 15.4.2.5L1181.2 8l-.3-.5zm.4 15.6V7.7h-.5v15.4zm25.9-15.6l-26.3 15.4.2.5L1207.4 8l-.2-.5zm.4 15.6V7.7h-.5v15.4zm25.9-15.6l-26.3 15.4.2.5L1233.7 8l-.2-.5zm.3 15.6V7.7h-.5v15.4zm25.9-15.6l-26.3 15.4.2.5L1260 8l-.3-.5zm.4 15.6V7.7h-.5v15.4zM1286 7.5l-26.3 15.4.2.5L1286.2 8l-.2-.5zm.4 15.6V7.7h-.5v15.4zm25.8-15.6L1286 22.9l.2.5L1312.5 8l-.3-.5zm.4 15.6V7.7h-.5v15.4zm25.9-15.6l-26.3 15.4.2.5L1338.7 8l-.2-.5zm.4 15.6V7.7h-.5v15.4zm25.9-15.6l-26.3 15.4.2.5L1365 8l-.2-.5zm.3 15.6V7.7h-.5v15.4zM1391 7.5l-26.3 15.4.2.5L1391.3 8l-.3-.5zm.4 15.6V7.7h-.5v15.4zm25.9-15.6L1391 22.9l.2.5L1417.5 8l-.2-.5zm.4 15.6V7.7h-.5v15.4zm25.9-15.6l-26.3 15.4.2.5L1443.8 8l-.2-.5zm.3 15.6V7.7h-.5v15.4zm25.9-15.6l-26.3 15.4.2.5L1470.1 8l-.3-.5zm.4 15.6V7.7h-.5v15.4zm25.9-15.6l-26.3 15.4.2.5L1496.3 8l-.2-.5zm.3 15.6V7.7h-.5v15.4zm25.9-15.6L1496 22.9l.2.5L1522.6 8l-.3-.5zm.4 15.6V7.7h-.5v15.4zm25.9-15.6l-26.3 15.4.2.5L1548.8 8l-.2-.5zm.4 15.6V7.7h-.5v15.4zm25.9-15.6l-26.3 15.4.2.5L1575.1 8l-.2-.5zm.3 15.6V7.7h-.5v15.4zm25.9-15.6l-26.3 15.4.2.5L1601.4 8l-.3-.5zm.4 15.6V7.7h-.5v15.4zm25.9-15.6l-26.3 15.4.2.5L1627.6 8l-.2-.5zm.4 15.6V7.7h-.5v15.4zm25.8-15.6l-26.3 15.4.2.5L1653.9 8l-.3-.5zm.4 15.6V7.7h-.5v15.4zm25.9-15.6l-26.3 15.4.2.5L1680.1 8l-.2-.5zm.4 15.6V7.7h-.5v15.4zm25.9-15.6l-26.3 15.4.2.5L1706.4 8l-.2-.5zm.3 15.6V7.7h-.5v15.4zm25.9-15.6l-26.3 15.4.2.5L1732.7 8l-.3-.5zm.4 15.6V7.7h-.5v15.4zm25.9-15.6l-26.3 15.4.2.5L1758.9 8l-.2-.5zm.4 15.6V7.7h-.5v15.4zM1785 7.5l-26.3 15.4.2.5L1785.2 8l-.2-.5zm.3 15.6V7.7h-.5v15.4zm25.9-15.6L1785 22.9l.2.5L1811.5 8l-.3-.5zm.4 15.6V7.7h-.5v15.4zm25.9-15.6l-26.3 15.4.2.5L1837.7 8l-.2-.5zm.3 15.6V7.7h-.5v15.4zm25.9-15.6l-26.3 15.4.2.5L1864 8l-.3-.5zm.4 15.6V7.7h-.5v15.4zM1890 7.5l-26.3 15.4.2.5L1890.2 8l-.2-.5zm.4 15.6V7.7h-.5v15.4zm25.9-15.6L1890 22.9l.2.5L1916.5 8l-.2-.5zm.3 15.6V7.7h-.5v15.4zm25.9-15.6l-26.3 15.4.2.5L1942.8 8l-.3-.5zm.4 15.6V7.7h-.5v15.4zm25.9-15.6l-26.3 15.4.2.5L1969 8l-.2-.5zm.4 15.6V7.7h-.5v15.4zM1995 7.5l-26.3 15.4.2.5L1995.3 8l-.3-.5zm.4 15.6V7.7h-.5v15.4zm25.9-15.6L1995 22.9l.2.5L2021.5 8l-.2-.5zm.4 15.6V7.7h-.5v15.4zm25.9-15.6l-26.3 15.4.2.5L2047.8 8l-.2-.5zm.3 15.6V7.7h-.5v15.4zm25.9-15.6l-26.3 15.4.2.5L2074.1 8l-.3-.5zm.4 22.2v-22h-.5v22zm-26.5.3h26.3v-.5h-26.3zm-11.3 0h11.3v-.5h-11.3zm-15 0h14.9v-.5h-14.9zm-11.3 0h11.3v-.5h-11.3zm-14.9 0h14.9v-.5h-14.9zm-11.4 0h11.3v-.5h-11.3zm-14.9 0h14.9v-.5h-14.9zm-11.3 0h11.3v-.5h-11.3zm-15 0h14.9v-.5h-14.9zm-11.3 0h11.3v-.5h-11.3zm-14.9 0h14.9v-.5h-14.9zm-11.3 0h11.3v-.5h-11.3zm-15 0h14.9v-.5h-14.9zm-11.3 0h11.3v-.5h-11.3zm-14.9 0h14.9v-.5h-14.9zm-11.4 0h11.3v-.5h-11.3zm-14.9 0h14.9v-.5h-14.9zm-11.3 0h11.3v-.5h-11.3zm-15 0h14.9v-.5h-14.9zm-11.3 0h11.3v-.5H1800zm-14.9 0h14.9v-.5h-14.9zm-11.3 0h11.3v-.5h-11.3zm-15 0h14.9v-.5h-14.9zm-11.3 0h11.3v-.5h-11.3zm-15 0h14.9v-.5h-14.9zm-11.3 0h11.3v-.5h-11.3zm-14.9 0h14.9v-.5h-14.9zm-11.3 0h11.3v-.5H1695zm-15 0h14.9v-.5H1680zm-11.3 0h11.3v-.5h-11.3zm-14.9 0h14.9v-.5h-14.9zm-11.4 0h11.3v-.5h-11.3zm-14.9 0h14.9v-.5h-14.9zm-11.3 0h11.3v-.5h-11.3zm-15 0h14.9v-.5h-14.9zm-11.3 0h11.3v-.5h-11.3zm-14.9 0h14.9v-.5H1575zm-11.3 0h11.3v-.5h-11.3zm-15 0h14.9v-.5h-14.9zm-11.3 0h11.3v-.5h-11.3zm-14.9 0h14.9v-.5h-14.9zm-11.4 0h11.3v-.5h-11.3zm-14.9 0h14.9v-.5h-14.9zm-11.3 0h11.3v-.5h-11.3zm-15 0h14.9v-.5h-14.9zm-11.3 0h11.3v-.5h-11.3zm-14.9 0h14.9v-.5h-14.9zm-11.3 0h11.3v-.5h-11.3zm-15 0h14.9v-.5h-14.9zm-11.3 0h11.3v-.5h-11.3zm-15 0h14.9v-.5h-14.9zm-11.3 0h11.3v-.5h-11.3zm-14.9 0h14.9v-.5h-14.9zm-11.3 0h11.3v-.5h-11.3zm-15 0h14.9v-.5h-14.9zm-11.3 0h11.3v-.5h-11.3zm-14.9 0h14.9v-.5h-14.9zm-11.4 0h11.3v-.5H1301zm-14.9 0h14.9v-.5h-14.9zm-11.3 0h11.3v-.5h-11.3zm-15 0h14.9v-.5h-14.9zm-11.3 0h11.3v-.5h-11.3zm-14.9 0h14.9v-.5h-14.9zm-11.3 0h11.3v-.5h-11.3zm-15 0h14.9v-.5h-14.9zm-11.3 0h11.3v-.5H1196zm-14.9 0h14.9v-.5h-14.9zm-11.4 0h11.3v-.5h-11.3zm-14.9 0h14.9v-.5h-14.9zm-11.3 0h11.3v-.5h-11.3zm-15 0h14.9v-.5h-14.9zm-11.3 0h11.3v-.5h-11.3zm-14.9 0h14.9v-.5h-14.9zm-11.4 0h11.3v-.5h-11.3zm-14.9 0h14.9v-.5H1076zm-11.3 0h11.3v-.5h-11.3zm-15 0h14.9v-.5h-14.9zm-11.3 0h11.3v-.5h-11.3zm-14.9 0h14.9v-.5h-14.9zm-11.3 0h11.3v-.5h-11.3zm-15 0h14.9v-.5h-14.9zm-11.3 0h11.3v-.5h-11.3zM971 30h14.9v-.5H971zm-11.4 0H971v-.5h-11.3v.5zm-14.9 0h14.9v-.5h-14.9zm-11.3 0h11.3v-.5h-11.3zm-15 0h14.9v-.5h-14.9zm-11.3 0h11.3v-.5h-11.3zm-14.9 0h14.9v-.5h-14.9zm-11.3 0h11.3v-.5h-11.3zm-15 0h14.9v-.5h-14.9zm-11.3 0h11.3v-.5h-11.3zm-14.9 0h14.9v-.5h-14.9zm-11.4 0h11.3v-.5h-11.3zm-14.9 0h14.9v-.5h-14.9zm-11.3 0h11.3v-.5h-11.3zm-15 0H802v-.5h-14.9zm-11.3 0h11.3v-.5h-11.3zm-14.9 0h14.9v-.5h-14.9zm-11.4 0h11.3v-.5h-11.3zm-14.9 0h14.9v-.5h-14.9zm-11.3 0h11.3v-.5h-11.3zm-15 0h14.9v-.5h-14.9zM697 30h11.3v-.5H697zm-14.9 0H697v-.5h-14.9zm-11.4 0H682v-.5h-11.3zm-14.9 0h14.9v-.5h-14.9zm-11.3 0h11.3v-.5h-11.3zm-15 0h14.9v-.5h-14.9zm-11.3 0h11.3v-.5h-11.3zm-14.9 0h14.9v-.5h-14.9zM592 30h11.3v-.5H592zm-15 0h15v-.5h-15zm-11.3 0H577v-.5h-11.3zm-15 0h14.9v-.5h-14.9zm-11.3 0h11.3v-.5h-11.3zm-14.9 0h14.9v-.5h-14.9zm-11.3 0h11.3v-.5h-11.3zm-15 0h14.9v-.5h-14.9zm-11.3 0h11.3v-.5h-11.3zm-15 0h14.9v-.5h-14.9zm-11.3 0h11.3v-.5h-11.3zm-14.9 0h14.9v-.5h-14.9zm-11.3 0h11.3v-.5h-11.3zm-15 0h14.9v-.5h-14.9zm-11.3 0h11.3v-.5h-11.3zm-14.9 0h14.9v-.5h-14.9zm-11.4 0h11.3v-.5h-11.3zm-14.9 0h14.9v-.5h-14.9zm-11.3 0h11.3v-.5h-11.3zm-15 0h14.9v-.5h-14.9zm-11.3 0h11.3v-.5h-11.3zm-14.9 0h14.9v-.5h-14.9zM303 30h11.3v-.5H303zm-14.9 0H303v-.5h-14.9zm-11.3 0h11.3v-.5h-11.3zm-15 0h14.9v-.5h-14.9zm-11.3 0h11.3v-.5h-11.3zm-14.9 0h14.9v-.5h-14.9zm-11.3 0h11.3v-.5h-11.3zm-15 0h14.9v-.5h-14.9zM198 30h11.3v-.5H198zm-14.9 0H198v-.5h-14.9zm-11.4 0H183v-.5h-11.3zm-14.9 0h14.9v-.5h-14.9zm-11.3 0h11.3v-.5h-11.3zm-15 0h14.9v-.5h-14.9zm-11.3 0h11.3v-.5h-11.3zm-14.9 0h14.9v-.5h-14.9zm-11.4 0h11.3v-.5H92.9zM78 30h14.9v-.5H78zm-11.3 0H78v-.5H66.7zm-15 0h14.9v-.5H51.7zm-11.3 0h11.3v-.5H40.4zm-14.9 0h14.9v-.5H25.5zm-11.3 0h11.3v-.5H14.2zm-15 0h14.9v-.5H-.8zm-11.3 0H-.8v-.5h-11.3zm-26.3 0h26.3v-.5h-26v.5z"/></g></svg>